0
SECTION
2
HEADER
9
$INSUNITS
70
4
9
$ACADVER
1
AC1014
9
$HANDSEED
5
FFFF
0
ENDSEC
0
SECTION
2
TABLES
0
TABLE
2
VPORT
5
8
100
AcDbSymbolTable
0
ENDTAB
0
TABLE
2
LTYPE
5
5
100
AcDbSymbolTable
0
LTYPE
5
14
100
AcDbSymbolTableRecord
100
AcDbLinetypeTableRecord
2
BYBLOCK
70
0
0
LTYPE
5
15
100
AcDbSymbolTableRecord
100
AcDbLinetypeTableRecord
2
BYLAYER
70
0
0
ENDTAB
0
TABLE
2
LAYER
5
2
100
AcDbSymbolTable
70
2
0
LAYER
5
50
100
AcDbSymbolTableRecord
100
AcDbLayerTableRecord
2
0
70
0
6
CONTINUOUS
0
ENDTAB
0
TABLE
2
STYLE
5
3
100
AcDbSymbolTable
70
1
0
STYLE
5
11
100
AcDbSymbolTableRecord
100
AcDbTextStyleTableRecord
2
STANDARD
70
0
0
ENDTAB
0
TABLE
2
VIEW
5
6
100
AcDbSymbolTable
70
0
0
ENDTAB
0
TABLE
2
UCS
5
7
100
AcDbSymbolTable
70
0
0
ENDTAB
0
TABLE
2
APPID
5
9
100
AcDbSymbolTable
70
2
0
APPID
5
12
100
AcDbSymbolTableRecord
100
AcDbRegAppTableRecord
2
ACAD
70
0
0
ENDTAB
0
TABLE
2
DIMSTYLE
5
A
100
AcDbSymbolTable
70
1
0
ENDTAB
0
TABLE
2
BLOCK_RECORD
5
1
100
AcDbSymbolTable
70
1
0
BLOCK_RECORD
5
1F
100
AcDbSymbolTableRecord
100
AcDbBlockTableRecord
2
*MODEL_SPACE
0
BLOCK_RECORD
5
1B
100
AcDbSymbolTableRecord
100
AcDbBlockTableRecord
2
*PAPER_SPACE
0
ENDTAB
0
ENDSEC
0
SECTION
2
BLOCKS
0
BLOCK
5
20
100
AcDbEntity
100
AcDbBlockBegin
2
*MODEL_SPACE
0
ENDBLK
5
21
100
AcDbEntity
100
AcDbBlockEnd
0
BLOCK
5
1C
100
AcDbEntity
100
AcDbBlockBegin
2
*PAPER_SPACE
0
ENDBLK
5
1D
100
AcDbEntity
100
AcDbBlockEnd
0
ENDSEC
0
SECTION
2
ENTITIES
0
LWPOLYLINE
5
100
100
AcDbEntity
8
OUTER_PROFILES
100
AcDbPolyline
90
24
70
1
43
0.0
10
149.00000000000023
20
80.000000387431186
42
0.41421356237309764
10
145.00000000000023
20
76.0000003874312
10
145.00000000000023
20
31.999999612570797
42
0.41421356237309798
10
149.00000000000023
20
27.999999612570807
10
167.78584121953827
20
27.999999612570754
10
167.78584013175418
20
5.9999999999999396
42
-0.41421356237309398
10
161.78584013175418
20
-5.3290705182007514e-14
10
155.78584013175416
20
-3.5527136788005009e-14
10
149.00000000000023
20
0
10
0
20
0
10
-5
20
0
10
-11.785840131753975
20
0
10
-17.785840131753975
20
-1.3322676295501878e-14
42
-0.41421356237309537
10
-23.785840131753989
20
5.9999999999999787
10
-23.78584013175395
20
101.99999999999997
42
-0.4142135623730942
10
-17.785840131753989
20
107.99999999999999
10
-11.785840131754011
20
108
10
-5
20
108
10
0
20
108
10
149.00000000000023
20
108
10
155.78584013175416
20
107.99999999999999
10
161.7858401317541
20
107.99999999999999
42
-0.41421356237310114
10
167.78584013175424
20
101.99999999999996
10
167.78584121953838
20
80.000000387431157
0
LWPOLYLINE
5
101
100
AcDbEntity
8
INTERIOR_PROFILES
100
AcDbPolyline
90
4
70
1
43
0.0
10
1.5500000000001357
20
33.250000000000796
10
8.6500059902675375
20
33.250000000000796
42
-0.99999999999999989
10
8.6500059902675375
20
27.650000000000801
10
1.5500000000001357
20
27.650000000000794
42
-0.99999999999999989
0
LWPOLYLINE
5
102
100
AcDbEntity
8
INTERIOR_PROFILES
100
AcDbPolyline
90
4
70
1
43
0.0
10
48.55000000000004
20
80.350000000000804
10
55.650005990267445
20
80.350000000000804
42
-0.99999999999999989
10
55.650005990267445
20
74.75000000000081
10
48.55000000000004
20
74.750000000000796
42
-0.99999999999999989
0
LWPOLYLINE
5
103
100
AcDbEntity
8
INTERIOR_PROFILES
100
AcDbPolyline
90
5
70
1
43
0.0
10
26.076310603472805
20
34.500172256701909
10
13.413818398499018
20
34.526916047210896
42
-0.48100384495469706
10
13.447225081881996
20
73.499775585727761
10
41.196669713767008
20
73.499775585716648
42
-0.55839622109160392
10
40.935095195057912
20
34.339036069284916
0
LWPOLYLINE
5
104
100
AcDbEntity
8
INTERIOR_PROFILES
100
AcDbPolyline
90
4
70
1
43
0.0
10
48.550000000000125
20
27.650000000000801
42
-0.99999999999999989
10
48.550000000000125
20
33.250000000000796
10
55.650005990267616
20
33.250000000000796
42
-0.99999999999999989
10
55.650005990267616
20
27.650000000000801
0
LWPOLYLINE
5
105
100
AcDbEntity
8
INTERIOR_PROFILES
100
AcDbPolyline
90
4
70
1
43
0.0
10
8.6500059902674309
20
74.750000000000796
10
1.5500000000000291
20
74.750000000000796
42
-0.99999999999999989
10
1.5500000000000287
20
80.350000000000804
10
8.6500059902674309
20
80.350000000000804
42
-0.99999999999999989
0
CIRCLE
5
106
100
AcDbEntity
8
INTERIOR_PROFILES
100
AcDbCircle
10
161.78584013175418
20
5.9999999999999609
30
0
40
2.099999999999973
210
0
220
-0
230
1
0
CIRCLE
5
107
100
AcDbEntity
8
INTERIOR_PROFILES
100
AcDbCircle
10
102.00000000000024
20
84
30
0
40
1.6499999999999915
210
-0
220
0
230
1
0
CIRCLE
5
108
100
AcDbEntity
8
INTERIOR_PROFILES
100
AcDbCircle
10
161.78584013175362
20
85.999999999999972
30
0
40
2.099999999999973
210
0
220
-0
230
1
0
CIRCLE
5
109
100
AcDbEntity
8
INTERIOR_PROFILES
100
AcDbCircle
10
127.98076211353322
20
38.999999999999702
30
0
40
1.6499999999999915
210
-0
220
0
230
1
0
CIRCLE
5
110
100
AcDbEntity
8
INTERIOR_PROFILES
100
AcDbCircle
10
76.019237886466925
20
69.000000000000099
30
0
40
1.6499999999999915
210
-0
220
0
230
1
0
CIRCLE
5
111
100
AcDbEntity
8
INTERIOR_PROFILES
100
AcDbCircle
10
76.01923788646684
20
38.999999999999993
30
0
40
1.6499999999999915
210
-0
220
0
230
1
0
CIRCLE
5
112
100
AcDbEntity
8
INTERIOR_PROFILES
100
AcDbCircle
10
127.98076211353322
20
68.999999999999702
30
0
40
1.6499999999999915
210
-0
220
0
230
1
0
CIRCLE
5
113
100
AcDbEntity
8
INTERIOR_PROFILES
100
AcDbCircle
10
161.78584013175353
20
21.99999999999995
30
0
40
2.099999999999973
210
-0
220
0
230
1
0
CIRCLE
5
114
100
AcDbEntity
8
INTERIOR_PROFILES
100
AcDbCircle
10
102.00000000000024
20
24.000000000000004
30
0
40
1.6499999999999915
210
-0
220
0
230
1
0
CIRCLE
5
115
100
AcDbEntity
8
INTERIOR_PROFILES
100
AcDbCircle
10
161.78584013175424
20
101.99999999999997
30
0
40
2.099999999999973
210
0
220
-0
230
1
0
CIRCLE
5
116
100
AcDbEntity
8
INTERIOR_PROFILES
100
AcDbCircle
10
-102.00000000000024
20
53.999999999999972
30
0
40
25
210
0
220
0
230
-1
0
CIRCLE
5
117
100
AcDbEntity
8
INTERIOR_PROFILES
100
AcDbCircle
10
-17.785840131753385
20
102
30
0
40
2.0999999999999908
210
0
220
-0
230
1
0
CIRCLE
5
118
100
AcDbEntity
8
INTERIOR_PROFILES
100
AcDbCircle
10
-17.785840131752746
20
85.999999999999972
30
0
40
2.0999999999999908
210
0
220
-0
230
1
0
CIRCLE
5
119
100
AcDbEntity
8
INTERIOR_PROFILES
100
AcDbCircle
10
-17.785840131752746
20
21.999999999999975
30
0
40
2.0999999999999908
210
0
220
-0
230
1
0
CIRCLE
5
120
100
AcDbEntity
8
INTERIOR_PROFILES
100
AcDbCircle
10
-17.785840131753385
20
5.9999999999999876
30
0
40
2.0999999999999908
210
0
220
-0
230
1
0
LINE
5
121
100
AcDbEntity
8
BEND
100
AcDbLine
10
-8.3929200658769787
20
108
30
4.8506320759262749e-14
11
-8.3929200658769787
21
0
31
2.1860968168259128e-14
0
LINE
5
122
100
AcDbEntity
8
BEND
100
AcDbLine
10
152.39292006587718
20
-1.7763568394002505e-14
30
-1.8591267419153753e-15
11
152.39292006587718
21
27.999999612570832
31
1.3343561791617188e-14
0
LINE
5
123
100
AcDbEntity
8
BEND
100
AcDbLine
10
152.39292006587718
20
80.000000387431172
30
3.004486535307416e-14
11
152.39292006587718
21
108
31
2.2709654376076961e-14
0
LINE
5
124
100
AcDbEntity
8
BEND_EXTENT
100
AcDbLine
10
155.78584013175416
20
-3.5527136788005009e-14
30
-3.5527136788005009e-14
11
155.78584013175416
21
27.999999612570782
31
-3.5527136788005016e-14
0
LINE
5
125
100
AcDbEntity
8
BEND_EXTENT
100
AcDbLine
10
155.78584013175413
20
80.000000387431186
30
-3.5527136788005041e-14
11
155.78584013175416
21
107.99999999999999
31
-3.5527136788005047e-14
0
LINE
5
126
100
AcDbEntity
8
BEND_EXTENT
100
AcDbLine
10
149.00000000000023
20
27.999999612570818
30
-8.8817841970012618e-15
11
149.00000000000023
21
0
31
-8.8817841970012507e-15
0
LINE
5
127
100
AcDbEntity
8
BEND_EXTENT
100
AcDbLine
10
149.00000000000023
20
108
30
-4.110084620329243e-29
11
149.00000000000023
21
80.000000387431186
31
-8.8817841970012823e-15
0
LINE
5
128
100
AcDbEntity
8
BEND_EXTENT
100
AcDbLine
10
-5
20
0
30
8.8817841970012523e-15
11
-5
21
108
31
2.6645352591003713e-14
0
LINE
5
129
100
AcDbEntity
8
BEND_EXTENT
100
AcDbLine
10
-11.785840131754011
20
108
30
4.5519144009631368e-14
11
-11.785840131753975
21
0
31
4.5796699765787707e-14
0
ENDSEC
0
SECTION
2
OBJECTS
0
DICTIONARY
5
C
100
AcDbDictionary
3
ACAD_GROUP
350
D
3
ACAD_MLINESTYLE
350
17
0
DICTIONARY
5
D
100
AcDbDictionary
0
DICTIONARY
5
1A
330
C
100
AcDbDictionary
0
DICTIONARY
5
17
100
AcDbDictionary
0
ENDSEC
0
EOF
