0
SECTION
2
HEADER
9
$INSUNITS
70
4
9
$ACADVER
1
AC1014
9
$HANDSEED
5
FFFF
0
ENDSEC
0
SECTION
2
TABLES
0
TABLE
2
VPORT
5
8
100
AcDbSymbolTable
0
ENDTAB
0
TABLE
2
LTYPE
5
5
100
AcDbSymbolTable
0
LTYPE
5
14
100
AcDbSymbolTableRecord
100
AcDbLinetypeTableRecord
2
BYBLOCK
70
0
0
LTYPE
5
15
100
AcDbSymbolTableRecord
100
AcDbLinetypeTableRecord
2
BYLAYER
70
0
0
ENDTAB
0
TABLE
2
LAYER
5
2
100
AcDbSymbolTable
70
2
0
LAYER
5
50
100
AcDbSymbolTableRecord
100
AcDbLayerTableRecord
2
0
70
0
6
CONTINUOUS
0
ENDTAB
0
TABLE
2
STYLE
5
3
100
AcDbSymbolTable
70
1
0
STYLE
5
11
100
AcDbSymbolTableRecord
100
AcDbTextStyleTableRecord
2
STANDARD
70
0
0
ENDTAB
0
TABLE
2
VIEW
5
6
100
AcDbSymbolTable
70
0
0
ENDTAB
0
TABLE
2
UCS
5
7
100
AcDbSymbolTable
70
0
0
ENDTAB
0
TABLE
2
APPID
5
9
100
AcDbSymbolTable
70
2
0
APPID
5
12
100
AcDbSymbolTableRecord
100
AcDbRegAppTableRecord
2
ACAD
70
0
0
ENDTAB
0
TABLE
2
DIMSTYLE
5
A
100
AcDbSymbolTable
70
1
0
ENDTAB
0
TABLE
2
BLOCK_RECORD
5
1
100
AcDbSymbolTable
70
1
0
BLOCK_RECORD
5
1F
100
AcDbSymbolTableRecord
100
AcDbBlockTableRecord
2
*MODEL_SPACE
0
BLOCK_RECORD
5
1B
100
AcDbSymbolTableRecord
100
AcDbBlockTableRecord
2
*PAPER_SPACE
0
ENDTAB
0
ENDSEC
0
SECTION
2
BLOCKS
0
BLOCK
5
20
100
AcDbEntity
100
AcDbBlockBegin
2
*MODEL_SPACE
0
ENDBLK
5
21
100
AcDbEntity
100
AcDbBlockEnd
0
BLOCK
5
1C
100
AcDbEntity
100
AcDbBlockBegin
2
*PAPER_SPACE
0
ENDBLK
5
1D
100
AcDbEntity
100
AcDbBlockEnd
0
ENDSEC
0
SECTION
2
ENTITIES
0
LWPOLYLINE
5
100
100
AcDbEntity
8
OUTER_PROFILES
100
AcDbPolyline
90
8
70
1
43
0.0
10
-8.0000000000000622
20
8.0000000000000071
10
-8.0000000000000266
20
159.99999999999997
42
-0.4142135623730962
10
-2.2893735192101212e-14
20
167.99999999999997
10
215.99999999999994
20
168
42
-0.41421356237309698
10
223.99999999999994
20
159.99999999999994
10
224
20
8.0000000000000071
42
-0.41421356237309503
10
215.99999999999997
20
0
10
1.1559925344341402e-15
20
-3.5527136788005009e-14
42
-0.41421356237309576
0
CIRCLE
5
101
100
AcDbEntity
8
INTERIOR_PROFILES
100
AcDbCircle
10
-3.9999999999999361
20
131.99999999999875
30
0
40
2.5999999999999979
210
0
220
0
230
-1
0
CIRCLE
5
102
100
AcDbEntity
8
INTERIOR_PROFILES
100
AcDbCircle
10
-3.9999999999999822
20
35.999999999998735
30
0
40
2.5999999999999979
210
0
220
0
230
-1
0
LWPOLYLINE
5
103
100
AcDbEntity
8
INTERIOR_PROFILES
100
AcDbPolyline
90
4
70
1
43
0.0
10
96.399999999999949
20
152.99999999999903
42
-0.99999999999999989
10
101.59999999999995
20
152.99999999999903
10
101.59999999999995
20
148.99999999999903
42
-0.99999999999999989
10
96.399999999999949
20
148.99999999999903
0
LWPOLYLINE
5
104
100
AcDbEntity
8
INTERIOR_PROFILES
100
AcDbPolyline
90
4
70
1
43
0.0
10
-4.6000000000000014
20
152.99999999999903
42
-0.99999999999999989
10
0.59999999999998055
20
152.99999999999903
10
0.59999999999998055
20
148.99999999999906
42
-0.99999999999999989
10
-4.6000000000000014
20
148.99999999999906
0
LWPOLYLINE
5
105
100
AcDbEntity
8
INTERIOR_PROFILES
100
AcDbPolyline
90
4
70
1
43
0.0
10
178.39999999999998
20
152.99999999999903
42
-0.99999999999999989
10
183.59999999999991
20
152.99999999999903
10
183.59999999999991
20
148.99999999999903
42
-0.99999999999999989
10
178.39999999999998
20
148.99999999999903
0
LWPOLYLINE
5
106
100
AcDbEntity
8
INTERIOR_PROFILES
100
AcDbPolyline
90
4
70
1
43
0.0
10
215.39999999999992
20
152.99999999999903
42
-0.99999999999999989
10
220.59999999999997
20
152.99999999999903
10
220.59999999999997
20
148.99999999999903
42
-0.99999999999999989
10
215.39999999999992
20
148.99999999999903
0
LWPOLYLINE
5
107
100
AcDbEntity
8
INTERIOR_PROFILES
100
AcDbPolyline
90
4
70
1
43
0.0
10
215.39999999999995
20
19.000000000000057
42
-0.99999999999999989
10
220.59999999999991
20
19.000000000000057
10
220.59999999999991
20
15.000000000000036
42
-0.99999999999999989
10
215.39999999999992
20
15.000000000000036
0
LWPOLYLINE
5
108
100
AcDbEntity
8
INTERIOR_PROFILES
100
AcDbPolyline
90
4
70
1
43
0.0
10
96.399999999999977
20
19.000000000000057
42
-0.99999999999999989
10
101.59999999999997
20
19.000000000000057
10
101.59999999999997
20
15.000000000000053
42
-0.99999999999999989
10
96.399999999999991
20
15.000000000000053
0
LWPOLYLINE
5
109
100
AcDbEntity
8
INTERIOR_PROFILES
100
AcDbPolyline
90
4
70
1
43
0.0
10
178.39999999999992
20
19.000000000000039
42
-0.99999999999999989
10
183.59999999999997
20
19.000000000000039
10
183.59999999999991
20
15.000000000000018
42
-0.99999999999999989
10
178.39999999999998
20
15.000000000000018
0
LWPOLYLINE
5
110
100
AcDbEntity
8
INTERIOR_PROFILES
100
AcDbPolyline
90
4
70
1
43
0.0
10
-4.5999999999999588
20
19.000000000000057
42
-0.99999999999999989
10
0.59999999999996834
20
19.000000000000057
10
0.59999999999996945
20
15.000000000000053
42
-0.99999999999999989
10
-4.599999999999957
20
15.000000000000053
0
LWPOLYLINE
5
111
100
AcDbEntity
8
INTERIOR_PROFILES
100
AcDbPolyline
90
4
70
1
43
0.0
10
208.99999999999991
20
118.60000000000001
42
-0.99999999999999989
10
208.99999999999991
20
113.40000000000002
10
204.99999999999989
20
113.40000000000002
42
-0.99999999999999989
10
204.99999999999989
20
118.60000000000002
0
LWPOLYLINE
5
112
100
AcDbEntity
8
INTERIOR_PROFILES
100
AcDbPolyline
90
4
70
1
43
0.0
10
208.99999999999989
20
54.600000000000023
10
204.99999999999986
20
54.600000000000044
42
0.99999999999999989
10
204.99999999999986
20
49.400000000000048
10
208.99999999999989
20
49.400000000000063
42
0.99999999999999989
0
LWPOLYLINE
5
113
100
AcDbEntity
8
INTERIOR_PROFILES
100
AcDbPolyline
90
4
70
1
43
0.0
10
208.99999999999989
20
38.59999999999998
10
204.99999999999986
20
38.59999999999998
42
0.99999999999999989
10
204.99999999999986
20
33.399999999999977
10
208.99999999999989
20
33.399999999999977
42
0.99999999999999989
0
LWPOLYLINE
5
114
100
AcDbEntity
8
INTERIOR_PROFILES
100
AcDbPolyline
90
4
70
1
43
0.0
10
75.000000000001023
20
134.59999999999997
42
-0.99999999999999989
10
75.000000000001023
20
129.39999999999995
10
71.000000000001052
20
129.39999999999995
42
-0.99999999999999989
10
71.000000000001052
20
134.59999999999997
0
LWPOLYLINE
5
115
100
AcDbEntity
8
INTERIOR_PROFILES
100
AcDbPolyline
90
8
70
1
43
0.0
10
182.99999999999997
20
47.999999999999972
10
183
20
119.99999999999997
42
0.41421356237309503
10
176
20
126.99999999999996
10
104
20
126.99999999999997
42
0.41421356237309503
10
97.000000000000014
20
119.99999999999999
10
97
20
48.000000000000028
42
0.41421356237309503
10
103.99999999999999
20
41.000000000000021
10
176.00000000000006
20
41.000000000000014
42
0.41421356237309354
0
LWPOLYLINE
5
116
100
AcDbEntity
8
INTERIOR_PROFILES
100
AcDbPolyline
90
4
70
1
43
0.0
10
75.000000000001023
20
54.600000000000044
42
-0.99999999999999989
10
75.000000000001023
20
49.400000000000048
10
71.000000000001023
20
49.400000000000048
42
-0.99999999999999989
10
71.000000000001023
20
54.600000000000044
0
LWPOLYLINE
5
117
100
AcDbEntity
8
INTERIOR_PROFILES
100
AcDbPolyline
90
4
70
1
43
0.0
10
71.000000000001023
20
33.399999999999977
10
75.000000000001023
20
33.399999999999977
42
0.99999999999999989
10
75.000000000001023
20
38.59999999999998
10
71.000000000001023
20
38.59999999999998
42
0.99999999999999989
0
LWPOLYLINE
5
118
100
AcDbEntity
8
INTERIOR_PROFILES
100
AcDbPolyline
90
4
70
1
43
0.0
10
75.000000000001023
20
118.59999999999999
42
-0.99999999999999989
10
75.000000000001023
20
113.40000000000001
10
71.000000000001052
20
113.40000000000001
42
-0.99999999999999989
10
71.000000000001052
20
118.59999999999999
0
LWPOLYLINE
5
119
100
AcDbEntity
8
INTERIOR_PROFILES
100
AcDbPolyline
90
4
70
1
43
0.0
10
204.99999999999989
20
129.40000000000001
42
-0.99999999999999989
10
204.99999999999989
20
134.59999999999999
10
208.99999999999991
20
134.59999999999999
42
-0.99999999999999989
10
208.99999999999991
20
129.40000000000001
0
ENDSEC
0
SECTION
2
OBJECTS
0
DICTIONARY
5
C
100
AcDbDictionary
3
ACAD_GROUP
350
D
3
ACAD_MLINESTYLE
350
17
0
DICTIONARY
5
D
100
AcDbDictionary
0
DICTIONARY
5
1A
330
C
100
AcDbDictionary
0
DICTIONARY
5
17
100
AcDbDictionary
0
ENDSEC
0
EOF
