0
SECTION
2
HEADER
9
$INSUNITS
70
4
9
$ACADVER
1
AC1014
9
$HANDSEED
5
FFFF
0
ENDSEC
0
SECTION
2
TABLES
0
TABLE
2
VPORT
5
8
100
AcDbSymbolTable
0
ENDTAB
0
TABLE
2
LTYPE
5
5
100
AcDbSymbolTable
0
LTYPE
5
14
100
AcDbSymbolTableRecord
100
AcDbLinetypeTableRecord
2
BYBLOCK
70
0
0
LTYPE
5
15
100
AcDbSymbolTableRecord
100
AcDbLinetypeTableRecord
2
BYLAYER
70
0
0
ENDTAB
0
TABLE
2
LAYER
5
2
100
AcDbSymbolTable
70
2
0
LAYER
5
50
100
AcDbSymbolTableRecord
100
AcDbLayerTableRecord
2
0
70
0
6
CONTINUOUS
0
ENDTAB
0
TABLE
2
STYLE
5
3
100
AcDbSymbolTable
70
1
0
STYLE
5
11
100
AcDbSymbolTableRecord
100
AcDbTextStyleTableRecord
2
STANDARD
70
0
0
ENDTAB
0
TABLE
2
VIEW
5
6
100
AcDbSymbolTable
70
0
0
ENDTAB
0
TABLE
2
UCS
5
7
100
AcDbSymbolTable
70
0
0
ENDTAB
0
TABLE
2
APPID
5
9
100
AcDbSymbolTable
70
2
0
APPID
5
12
100
AcDbSymbolTableRecord
100
AcDbRegAppTableRecord
2
ACAD
70
0
0
ENDTAB
0
TABLE
2
DIMSTYLE
5
A
100
AcDbSymbolTable
70
1
0
ENDTAB
0
TABLE
2
BLOCK_RECORD
5
1
100
AcDbSymbolTable
70
1
0
BLOCK_RECORD
5
1F
100
AcDbSymbolTableRecord
100
AcDbBlockTableRecord
2
*MODEL_SPACE
0
BLOCK_RECORD
5
1B
100
AcDbSymbolTableRecord
100
AcDbBlockTableRecord
2
*PAPER_SPACE
0
ENDTAB
0
ENDSEC
0
SECTION
2
BLOCKS
0
BLOCK
5
20
100
AcDbEntity
100
AcDbBlockBegin
2
*MODEL_SPACE
0
ENDBLK
5
21
100
AcDbEntity
100
AcDbBlockEnd
0
BLOCK
5
1C
100
AcDbEntity
100
AcDbBlockBegin
2
*PAPER_SPACE
0
ENDBLK
5
1D
100
AcDbEntity
100
AcDbBlockEnd
0
ENDSEC
0
SECTION
2
ENTITIES
0
LWPOLYLINE
5
100
100
AcDbEntity
8
OUTER_PROFILES
100
AcDbPolyline
90
30
70
1
43
0.0
10
-5.9999999999999609
20
18.785840131753957
10
-5.9999999999999698
20
23.785840131753957
10
-5.9999999999999609
20
172.78584013175396
10
-5.9999999999999698
20
179.57168026350791
10
-5.9999999999999876
20
185.57168026350797
42
-0.41421356237309515
10
2.8293075334405635e-14
20
191.571680263508
10
37.000000000000014
20
191.57168026350797
42
-0.41421356237309503
10
43.000000000000007
20
185.57168026350794
10
43.000000000000028
20
179.57168026350791
10
43.000000000000014
20
172.78584013175396
10
43.000000000000028
20
170.78584013175399
42
0.41421356237309503
10
47.000000000000014
20
166.78584013175399
10
109.00000000000003
20
166.78584013175396
42
0.41421356237309503
10
113.00000000000003
20
170.78584013175399
10
113
20
172.78584013175396
10
113
20
179.57168026350791
10
112.99999999999999
20
185.57168026350797
42
-0.41421356237309503
10
119
20
191.571680263508
10
220
20
191.57168026350797
42
-0.41421356237309503
10
226
20
185.57168026350794
10
225.99999999999997
20
179.57168026350791
10
226
20
172.78584013175396
10
226
20
23.78584013175395
10
226
20
18.785840131753957
10
225.99999999999997
20
12.00000000000002
10
226
20
5.9999999999999964
42
-0.41421356237309503
10
220
20
-4.4408920985006262e-15
10
1.2555724594443297e-15
20
-4.4408920985006262e-15
42
-0.41421356237309465
10
-5.999999999999992
20
5.9999999999999964
10
-5.9999999999999876
20
12.00000000000002
0
LWPOLYLINE
5
101
100
AcDbEntity
8
INTERIOR_PROFILES
100
AcDbPolyline
90
4
70
1
43
0.0
10
51.947368421052651
20
24.585840131754566
10
56.684210526315809
20
24.585840131754566
10
56.684210526315809
20
80.385840131754577
10
51.947368421052651
20
80.385840131754549
0
LWPOLYLINE
5
102
100
AcDbEntity
8
INTERIOR_PROFILES
100
AcDbPolyline
90
4
70
1
43
0.0
10
89.842105263157919
20
24.585840131754566
10
94.578947368421069
20
24.585840131754566
10
94.578947368421069
20
80.385840131754549
10
89.842105263157919
20
80.385840131754549
0
LWPOLYLINE
5
103
100
AcDbEntity
8
INTERIOR_PROFILES
100
AcDbPolyline
90
4
70
1
43
0.0
10
80.368421052631604
20
24.585840131754555
10
85.105263157894754
20
24.585840131754555
10
85.105263157894754
20
80.385840131754577
10
80.368421052631604
20
80.385840131754577
0
LWPOLYLINE
5
104
100
AcDbEntity
8
INTERIOR_PROFILES
100
AcDbPolyline
90
4
70
1
43
0.0
10
123
20
24.585840131754573
10
123
20
80.385840131754577
10
118.26315789473685
20
80.385840131754549
10
118.26315789473685
20
24.585840131754573
0
LWPOLYLINE
5
105
100
AcDbEntity
8
INTERIOR_PROFILES
100
AcDbPolyline
90
4
70
1
43
0.0
10
42.473684210526336
20
24.585840131754566
10
47.210526315789494
20
24.585840131754566
10
47.210526315789494
20
80.385840131754549
10
42.473684210526336
20
80.385840131754577
0
LWPOLYLINE
5
106
100
AcDbEntity
8
INTERIOR_PROFILES
100
AcDbPolyline
90
4
70
1
43
0.0
10
108.78947368421055
20
80.385840131754577
10
108.78947368421053
20
24.585840131754573
10
113.5263157894737
20
24.585840131754573
10
113.5263157894737
20
80.385840131754549
0
LWPOLYLINE
5
107
100
AcDbEntity
8
INTERIOR_PROFILES
100
AcDbPolyline
90
4
70
1
43
0.0
10
61.421052631578959
20
24.585840131754566
10
66.157894736842124
20
24.585840131754573
10
66.157894736842124
20
80.385840131754577
10
61.421052631578959
20
80.385840131754577
0
LWPOLYLINE
5
108
100
AcDbEntity
8
INTERIOR_PROFILES
100
AcDbPolyline
90
4
70
1
43
0.0
10
99.31578947368422
20
24.585840131754566
10
104.05263157894738
20
24.585840131754566
10
104.05263157894738
20
80.385840131754577
10
99.31578947368422
20
80.385840131754577
0
LWPOLYLINE
5
109
100
AcDbEntity
8
INTERIOR_PROFILES
100
AcDbPolyline
90
4
70
1
43
0.0
10
70.894736842105289
20
24.585840131754573
10
75.631578947368439
20
24.585840131754573
10
75.631578947368439
20
80.385840131754577
10
70.894736842105289
20
80.385840131754549
0
LWPOLYLINE
5
110
100
AcDbEntity
8
INTERIOR_PROFILES
100
AcDbPolyline
90
4
70
1
43
0.0
10
33.000000000000014
20
80.385840131754577
10
33.000000000000014
20
24.585840131754555
10
37.736842105263186
20
24.585840131754555
10
37.736842105263179
20
80.385840131754577
0
LWPOLYLINE
5
111
100
AcDbEntity
8
INTERIOR_PROFILES
100
AcDbPolyline
90
4
70
1
43
0.0
10
191.12355320442501
20
145.33115818236357
42
-0.55404255057862317
10
191.26846975983921
20
106.33115818236357
10
164.73153024016221
20
106.33115818236357
42
-0.55404255057862317
10
164.87644679557638
20
145.33115818236357
0
LWPOLYLINE
5
112
100
AcDbEntity
8
INTERIOR_PROFILES
100
AcDbPolyline
90
4
70
1
43
0.0
10
206.4500000000007
20
105.03584013175377
10
196.65000000000074
20
105.03584013175376
42
0.99999999999999989
10
196.65000000000074
20
99.435840131753764
10
206.45000000000078
20
99.43584013175375
42
0.99999999999999989
0
LWPOLYLINE
5
113
100
AcDbEntity
8
INTERIOR_PROFILES
100
AcDbPolyline
90
4
70
1
43
0.0
10
149.55000000000072
20
146.53584013175376
10
159.3500000000007
20
146.53584013175373
42
0.99999999999999989
10
159.3500000000007
20
152.13584013175372
10
149.55000000000072
20
152.1358401317537
42
0.99999999999999989
0
LWPOLYLINE
5
114
100
AcDbEntity
8
INTERIOR_PROFILES
100
AcDbPolyline
90
4
70
1
43
0.0
10
206.4500000000007
20
152.13584013175375
10
196.65000000000072
20
152.13584013175375
42
0.99999999999999989
10
196.65000000000072
20
146.53584013175376
10
206.4500000000007
20
146.53584013175373
42
0.99999999999999989
0
LWPOLYLINE
5
115
100
AcDbEntity
8
INTERIOR_PROFILES
100
AcDbPolyline
90
4
70
1
43
0.0
10
149.34827535496163
20
99.438393331010602
10
159.3492852019547
20
99.435840222992738
42
0.99999999999999989
10
159.35071479804677
20
105.03584004051483
10
149.34970495106819
20
105.03839314846715
42
0.99999999999999989
0
CIRCLE
5
116
100
AcDbEntity
8
INTERIOR_PROFILES
100
AcDbCircle
10
-37.000000000000014
20
185.57168026350794
30
0
40
2.1000000000000085
210
0
220
0
230
-1
0
CIRCLE
5
117
100
AcDbEntity
8
INTERIOR_PROFILES
100
AcDbCircle
10
-220
20
185.57168026350794
30
0
40
2.1000000000000085
210
0
220
0
230
-1
0
CIRCLE
5
118
100
AcDbEntity
8
INTERIOR_PROFILES
100
AcDbCircle
10
-118.99999999999999
20
185.57168026350797
30
0
40
2.1000000000000085
210
0
220
0
230
-1
0
CIRCLE
5
119
100
AcDbEntity
8
INTERIOR_PROFILES
100
AcDbCircle
10
-93.000000000000327
20
151.76660224528698
30
0
40
1.6499999999999915
210
0
220
0
230
-1
0
CIRCLE
5
120
100
AcDbEntity
8
INTERIOR_PROFILES
100
AcDbCircle
10
-4.4408920985006262e-14
20
185.57168026350797
30
0
40
2.1000000000000085
210
0
220
0
230
-1
0
CIRCLE
5
121
100
AcDbEntity
8
INTERIOR_PROFILES
100
AcDbCircle
10
-62.999999999999893
20
99.805078018220883
30
0
40
1.6499999999999915
210
0
220
0
230
-1
0
CIRCLE
5
122
100
AcDbEntity
8
INTERIOR_PROFILES
100
AcDbCircle
10
-63.000000000000256
20
151.76660224528729
30
0
40
1.6499999999999915
210
0
220
0
230
-1
0
CIRCLE
5
123
100
AcDbEntity
8
INTERIOR_PROFILES
100
AcDbCircle
10
-92.999999999999972
20
99.805078018220797
30
0
40
1.6499999999999915
210
0
220
0
230
-1
0
CIRCLE
5
124
100
AcDbEntity
8
INTERIOR_PROFILES
100
AcDbCircle
10
-48.000000000000014
20
125.78584013175399
30
0
40
1.6499999999999915
210
0
220
0
230
-1
0
CIRCLE
5
125
100
AcDbEntity
8
INTERIOR_PROFILES
100
AcDbCircle
10
-108
20
125.78584013175399
30
0
40
1.6499999999999915
210
0
220
0
230
-1
0
CIRCLE
5
126
100
AcDbEntity
8
INTERIOR_PROFILES
100
AcDbCircle
10
78.000000000000014
20
125.78584013175399
30
0
40
24.999999999999993
210
0
220
0
230
1
0
CIRCLE
5
127
100
AcDbEntity
8
INTERIOR_PROFILES
100
AcDbCircle
10
-36.999999999999986
20
6.0000000000006004
30
0
40
2.0999999999999908
210
0
220
0
230
-1
0
CIRCLE
5
128
100
AcDbEntity
8
INTERIOR_PROFILES
100
AcDbCircle
10
-118.99999999999999
20
6.0000000000006004
30
0
40
2.0999999999999943
210
0
220
0
230
-1
0
CIRCLE
5
129
100
AcDbEntity
8
INTERIOR_PROFILES
100
AcDbCircle
10
-2.6645352591003757e-14
20
6.0000000000006004
30
0
40
2.0999999999999974
210
0
220
0
230
-1
0
CIRCLE
5
130
100
AcDbEntity
8
INTERIOR_PROFILES
100
AcDbCircle
10
-219.99999999999994
20
6.0000000000006004
30
0
40
2.0999999999999908
210
0
220
0
230
-1
0
LINE
5
131
100
AcDbEntity
8
BEND
100
AcDbLine
10
-5.9999999999999964
20
15.392920065877025
30
-1.9984014443252818e-14
11
225.99999999999994
21
15.392920065877025
31
-1.9984014443252818e-14
0
LINE
5
132
100
AcDbEntity
8
BEND
100
AcDbLine
10
226
20
176.17876019763094
30
-2.3874725290764613e-15
11
113
21
176.17876019763094
31
-1.0714145213765135e-14
0
LINE
5
133
100
AcDbEntity
8
BEND
100
AcDbLine
10
43.000000000000014
20
176.17876019763094
30
-1.5710148824578336e-14
11
-5.9999999999999698
21
176.17876019763094
31
-2.0151040923078971e-14
0
LINE
5
134
100
AcDbEntity
8
BEND_EXTENT
100
AcDbLine
10
113
20
172.78584013175396
30
-2.4268781428915531e-14
11
226
21
172.78584013175396
31
-1.5595164049031496e-14
0
LINE
5
135
100
AcDbEntity
8
BEND_EXTENT
100
AcDbLine
10
225.99999999999997
20
179.57168026350791
30
-1.7763568394002505e-14
11
113
21
179.57168026350791
31
-2.6645352591003757e-14
0
LINE
5
136
100
AcDbEntity
8
BEND_EXTENT
100
AcDbLine
10
226
20
18.785840131753957
30
-2.0365653607967715e-14
11
-5.9999999999999432
21
18.785840131753957
31
-2.0365653607967715e-14
0
LINE
5
137
100
AcDbEntity
8
BEND_EXTENT
100
AcDbLine
10
-5.9999999999999609
20
172.78584013175396
30
-3.2508717939805365e-14
11
43.000000000000014
21
172.78584013175396
31
-2.8605590118857549e-14
0
LINE
5
138
100
AcDbEntity
8
BEND_EXTENT
100
AcDbLine
10
43.000000000000028
20
179.57168026350791
30
-2.6645352591003757e-14
11
-5.9999999999999698
21
179.57168026350791
31
-3.5527136788005009e-14
0
LINE
5
139
100
AcDbEntity
8
BEND_EXTENT
100
AcDbLine
10
-5.9999999999999876
20
12.00000000000002
30
-1.7763568394002505e-14
11
225.99999999999997
21
12.00000000000002
31
-1.7763568394002505e-14
0
ENDSEC
0
SECTION
2
OBJECTS
0
DICTIONARY
5
C
100
AcDbDictionary
3
ACAD_GROUP
350
D
3
ACAD_MLINESTYLE
350
17
0
DICTIONARY
5
D
100
AcDbDictionary
0
DICTIONARY
5
1A
330
C
100
AcDbDictionary
0
DICTIONARY
5
17
100
AcDbDictionary
0
ENDSEC
0
EOF
