0
SECTION
2
HEADER
9
$INSUNITS
70
4
9
$ACADVER
1
AC1014
9
$HANDSEED
5
FFFF
0
ENDSEC
0
SECTION
2
TABLES
0
TABLE
2
VPORT
5
8
100
AcDbSymbolTable
0
ENDTAB
0
TABLE
2
LTYPE
5
5
100
AcDbSymbolTable
0
LTYPE
5
14
100
AcDbSymbolTableRecord
100
AcDbLinetypeTableRecord
2
BYBLOCK
70
0
0
LTYPE
5
15
100
AcDbSymbolTableRecord
100
AcDbLinetypeTableRecord
2
BYLAYER
70
0
0
ENDTAB
0
TABLE
2
LAYER
5
2
100
AcDbSymbolTable
70
2
0
LAYER
5
50
100
AcDbSymbolTableRecord
100
AcDbLayerTableRecord
2
0
70
0
6
CONTINUOUS
0
ENDTAB
0
TABLE
2
STYLE
5
3
100
AcDbSymbolTable
70
1
0
STYLE
5
11
100
AcDbSymbolTableRecord
100
AcDbTextStyleTableRecord
2
STANDARD
70
0
0
ENDTAB
0
TABLE
2
VIEW
5
6
100
AcDbSymbolTable
70
0
0
ENDTAB
0
TABLE
2
UCS
5
7
100
AcDbSymbolTable
70
0
0
ENDTAB
0
TABLE
2
APPID
5
9
100
AcDbSymbolTable
70
2
0
APPID
5
12
100
AcDbSymbolTableRecord
100
AcDbRegAppTableRecord
2
ACAD
70
0
0
ENDTAB
0
TABLE
2
DIMSTYLE
5
A
100
AcDbSymbolTable
70
1
0
ENDTAB
0
TABLE
2
BLOCK_RECORD
5
1
100
AcDbSymbolTable
70
1
0
BLOCK_RECORD
5
1F
100
AcDbSymbolTableRecord
100
AcDbBlockTableRecord
2
*MODEL_SPACE
0
BLOCK_RECORD
5
1B
100
AcDbSymbolTableRecord
100
AcDbBlockTableRecord
2
*PAPER_SPACE
0
ENDTAB
0
ENDSEC
0
SECTION
2
BLOCKS
0
BLOCK
5
20
100
AcDbEntity
100
AcDbBlockBegin
2
*MODEL_SPACE
0
ENDBLK
5
21
100
AcDbEntity
100
AcDbBlockEnd
0
BLOCK
5
1C
100
AcDbEntity
100
AcDbBlockBegin
2
*PAPER_SPACE
0
ENDBLK
5
1D
100
AcDbEntity
100
AcDbBlockEnd
0
ENDSEC
0
SECTION
2
ENTITIES
0
LWPOLYLINE
5
100
100
AcDbEntity
8
OUTER_PROFILES
100
AcDbPolyline
90
14
70
1
43
0.0
10
185.57168026350786
20
102
42
0.41421356237309503
10
179.57168026350786
20
107.99999999999999
10
173.5716802635078
20
107.99999999999997
10
166.78584013175396
20
107.99999999999997
10
161.78584013175396
20
107.99999999999999
10
12.785840131753918
20
108
10
6.0000000000000941
20
108
10
8.8817841970012523e-15
20
108
42
0.41421356237309548
10
-6.0000000000000018
20
102.00000000000001
10
-5.999999999999992
20
5.9999999999999964
42
0.41421356237309476
10
3.407364243981326e-15
20
-4.4408920985006262e-15
10
173.57168026350777
20
-2.6645352591003757e-14
10
179.57168026350783
20
-2.6645352591003757e-14
42
0.41421356237309498
10
185.57168026350783
20
5.9999999999999716
0
CIRCLE
5
101
100
AcDbEntity
8
INTERIOR_PROFILES
100
AcDbCircle
10
179.57168026350723
20
102
30
0
40
2.1000000000000085
210
0
220
0
230
1
0
LWPOLYLINE
5
102
100
AcDbEntity
8
INTERIOR_PROFILES
100
AcDbPolyline
90
8
70
1
43
0.0
10
21.785840131755258
20
38.600000530476365
10
30.7858401317553
20
38.600000530476372
42
-0.41421356237309459
10
33.385840662236646
20
35.999999999995019
10
33.38584066223666
20
26.99999999999498
42
-0.41421356237309503
10
30.7858401317553
20
24.399999469513624
10
21.785840131755258
20
24.39999946951361
42
-0.41421356237309503
10
19.185839601273894
20
26.999999999994976
10
19.185839601273912
20
35.999999999995012
42
-0.41421356237309459
0
CIRCLE
5
103
100
AcDbEntity
8
INTERIOR_PROFILES
100
AcDbCircle
10
179.57168026350718
20
5.9999999999999654
30
0
40
2.099999999999973
210
0
220
-0
230
1
0
LWPOLYLINE
5
104
100
AcDbEntity
8
INTERIOR_PROFILES
100
AcDbPolyline
90
8
70
1
43
0.0
10
39.78584013175535
20
23.999999999994877
42
-0.41421356237309465
10
36.785840131755329
20
26.999999999994884
10
36.785840131755322
20
35.999999999994927
42
-0.41421356237309592
10
39.78584013175535
20
38.999999999994941
10
48.7858401317554
20
38.999999999994948
42
-0.41421356237309287
10
51.785840131755414
20
35.999999999994941
10
51.785840131755414
20
26.999999999994895
42
-0.41421356237309243
10
48.785840131755407
20
23.999999999994877
0
CIRCLE
5
105
100
AcDbEntity
8
INTERIOR_PROFILES
100
AcDbCircle
10
-44.285840131755364
20
21.255161061877892
30
0
40
1.5000000000000036
210
0
220
0
230
-1
0
CIRCLE
5
106
100
AcDbEntity
8
INTERIOR_PROFILES
100
AcDbCircle
10
-26.285840131755283
20
41.749999999995083
30
0
40
1.500000000000008
210
0
220
0
230
-1
0
CIRCLE
5
107
100
AcDbEntity
8
INTERIOR_PROFILES
100
AcDbCircle
10
-44.285840131755364
20
41.744838938112082
30
0
40
1.5000000000000036
210
0
220
0
230
-1
0
CIRCLE
5
108
100
AcDbEntity
8
INTERIOR_PROFILES
100
AcDbCircle
10
-26.285840131755283
20
21.249999999994987
30
0
40
1.500000000000008
210
0
220
0
230
-1
0
LWPOLYLINE
5
109
100
AcDbEntity
8
INTERIOR_PROFILES
100
AcDbPolyline
90
4
70
1
43
0.0
10
153.18489993125246
20
82.626059059492292
42
-0.027826217985235296
10
156.20578944969165
20
78.626059059492235
10
81.365890813818211
20
78.626059059490942
42
-0.027826217985234047
10
84.386780332257203
20
82.626059059490856
0
LWPOLYLINE
5
110
100
AcDbEntity
8
INTERIOR_PROFILES
100
AcDbPolyline
90
4
70
1
43
0.0
10
85.958188782589559
20
22.626059059490871
42
-0.02895969798812013
10
82.609917182439276
20
26.626059059490835
10
154.96176308107175
20
26.626059059491084
42
-0.028959697988120373
10
151.61349148092145
20
22.626059059491041
0
LWPOLYLINE
5
111
100
AcDbEntity
8
INTERIOR_PROFILES
100
AcDbPolyline
90
4
70
1
43
0.0
10
163.84132102101194
20
54.62605905949107
10
73.73035924249892
20
54.626059059490899
42
-0.022252473614916963
10
74.008177549898519
20
58.626059059490892
10
163.56350271361231
20
58.626059059491382
42
-0.022252473614918836
0
LWPOLYLINE
5
112
100
AcDbEntity
8
INTERIOR_PROFILES
100
AcDbPolyline
90
4
70
1
43
0.0
10
149.35278344020148
20
86.62605905949107
10
88.218896823306423
20
86.626059059490942
42
-0.035587548551039863
10
93.224526954330457
20
90.626059059490828
10
144.34715330917817
20
90.626059059492377
42
-0.035587548551042208
0
LWPOLYLINE
5
113
100
AcDbEntity
8
INTERIOR_PROFILES
100
AcDbPolyline
90
4
70
1
43
0.0
10
158.60053464049759
20
74.626059059492107
42
-0.024523305732098509
10
160.47717245265886
20
70.626059059491965
10
77.094507810851596
20
70.626059059490913
42
-0.02452330573209709
10
78.971145623012688
20
74.626059059490899
0
LWPOLYLINE
5
114
100
AcDbEntity
8
INTERIOR_PROFILES
100
AcDbPolyline
90
4
70
1
43
0.0
10
162.52218924510453
20
42.626059059491055
42
-0.023168331951657059
10
161.32788434253925
20
38.62605905949107
10
76.243795920972019
20
38.62605905949092
42
-0.023168331951657059
10
75.049491018406414
20
42.626059059490856
0
LWPOLYLINE
5
115
100
AcDbEntity
8
INTERIOR_PROFILES
100
AcDbPolyline
90
2
70
1
43
0.0
10
132.66123449389863
20
10.626059059491046
42
-0.15776506019244407
10
104.91044576961229
20
10.626059059491039
0
LWPOLYLINE
5
116
100
AcDbEntity
8
INTERIOR_PROFILES
100
AcDbPolyline
90
4
70
1
43
0.0
10
157.61546940332255
20
30.626059059491084
10
79.956210860188634
20
30.626059059490935
42
-0.025061443571784872
10
77.86172966494378
20
34.626059059490835
10
159.70995059856722
20
34.626059059491084
42
-0.025061443571784595
0
LWPOLYLINE
5
117
100
AcDbEntity
8
INTERIOR_PROFILES
100
AcDbPolyline
90
4
70
1
43
0.0
10
161.90340595543742
20
66.62605905949178
42
-0.022909385693877012
10
162.92291949171184
20
62.626059059491581
10
74.648760771798919
20
62.626059059490906
42
-0.022909385693875191
10
75.668274308073194
20
66.626059059490871
0
LWPOLYLINE
5
118
100
AcDbEntity
8
INTERIOR_PROFILES
100
AcDbPolyline
90
2
70
1
43
0.0
10
137.23640758879725
20
94.62605905949107
10
100.33527267471308
20
94.626059059491013
42
-0.21407089343191762
0
CIRCLE
5
119
100
AcDbEntity
8
INTERIOR_PROFILES
100
AcDbCircle
10
-77.535840131754725
20
94.756397576050801
30
0
40
2.2500000000000053
210
0
220
0
230
-1
0
CIRCLE
5
120
100
AcDbEntity
8
INTERIOR_PROFILES
100
AcDbCircle
10
-160.0358401317547
20
12.256397576050739
30
0
40
2.2499999999999964
210
0
220
0
230
-1
0
CIRCLE
5
121
100
AcDbEntity
8
INTERIOR_PROFILES
100
AcDbCircle
10
-77.535840131754682
20
12.256397576050752
30
0
40
2.2500000000000053
210
0
220
0
230
-1
0
CIRCLE
5
122
100
AcDbEntity
8
INTERIOR_PROFILES
100
AcDbCircle
10
-160.03584013175472
20
94.756397576050787
30
0
40
2.2499999999999964
210
0
220
0
230
-1
0
CIRCLE
5
123
100
AcDbEntity
8
INTERIOR_PROFILES
100
AcDbCircle
10
8.8817841970012523e-15
20
5.9999999999999964
30
0
40
2.0999999999999908
210
0
220
0
230
1
0
CIRCLE
5
124
100
AcDbEntity
8
INTERIOR_PROFILES
100
AcDbCircle
10
0
20
102.00000000000001
30
0
40
2.0999999999999943
210
0
220
0
230
1
0
LWPOLYLINE
5
125
100
AcDbEntity
8
INTERIOR_PROFILES
100
AcDbPolyline
90
4
70
1
43
0.0
10
163.32695531646112
20
46.62605905949107
10
74.244724947050116
20
46.626059059490913
42
-0.022330641581339981
10
73.80858310078824
20
50.626059059490885
10
163.76309716272263
20
50.626059059491062
42
-0.022330641581339357
0
LWPOLYLINE
5
126
100
AcDbEntity
8
INTERIOR_PROFILES
100
AcDbPolyline
90
4
70
1
43
0.0
10
147.3272483831002
20
18.626059059490998
42
-0.038900461729649276
10
141.57990244713619
20
14.626059059490997
10
95.991777816374679
20
14.626059059491002
42
-0.0389004617296482
10
90.244431880410772
20
18.62605905949092
0
LINE
5
127
100
AcDbEntity
8
BEND
100
AcDbLine
10
170.17876019763082
20
-2.2204460492503131e-14
30
3.0798644924122681e-12
11
170.17876019763082
21
107.99999999999997
31
3.0798644924122689e-12
0
LINE
5
128
100
AcDbEntity
8
BEND
100
AcDbLine
10
9.3929200658769734
20
108
30
2.6191628940865835e-14
11
9.3929200658769538
21
0
31
4.6135851053989895e-14
0
LINE
5
129
100
AcDbEntity
8
BEND_EXTENT
100
AcDbLine
10
166.78584013175396
20
107.99999999999997
30
3.0280633685758987e-12
11
166.78584013175393
21
-1.7763568394002505e-14
31
3.0280633685758979e-12
0
LINE
5
130
100
AcDbEntity
8
BEND_EXTENT
100
AcDbLine
10
12.785840131753901
20
0
30
6.7832542678002102e-14
11
12.78584013175392
21
108
31
6.7832542678002455e-14
0
LINE
5
131
100
AcDbEntity
8
BEND_EXTENT
100
AcDbLine
10
6.0000000000000941
20
108
30
-3.8177059584970932e-14
11
6.000000000000016
21
0
31
-2.2939248571991706e-14
0
LINE
5
132
100
AcDbEntity
8
BEND_EXTENT
100
AcDbLine
10
173.57168026350777
20
-2.6645352591003757e-14
30
3.122975537876418e-12
11
173.5716802635078
21
107.99999999999997
31
3.1229755378764184e-12
0
ENDSEC
0
SECTION
2
OBJECTS
0
DICTIONARY
5
C
100
AcDbDictionary
3
ACAD_GROUP
350
D
3
ACAD_MLINESTYLE
350
17
0
DICTIONARY
5
D
100
AcDbDictionary
0
DICTIONARY
5
1A
330
C
100
AcDbDictionary
0
DICTIONARY
5
17
100
AcDbDictionary
0
ENDSEC
0
EOF
