0
SECTION
2
HEADER
9
$INSUNITS
70
4
9
$ACADVER
1
AC1014
9
$HANDSEED
5
FFFF
0
ENDSEC
0
SECTION
2
TABLES
0
TABLE
2
VPORT
5
8
100
AcDbSymbolTable
0
ENDTAB
0
TABLE
2
LTYPE
5
5
100
AcDbSymbolTable
0
LTYPE
5
14
100
AcDbSymbolTableRecord
100
AcDbLinetypeTableRecord
2
BYBLOCK
70
0
0
LTYPE
5
15
100
AcDbSymbolTableRecord
100
AcDbLinetypeTableRecord
2
BYLAYER
70
0
0
ENDTAB
0
TABLE
2
LAYER
5
2
100
AcDbSymbolTable
70
2
0
LAYER
5
50
100
AcDbSymbolTableRecord
100
AcDbLayerTableRecord
2
0
70
0
6
CONTINUOUS
0
ENDTAB
0
TABLE
2
STYLE
5
3
100
AcDbSymbolTable
70
1
0
STYLE
5
11
100
AcDbSymbolTableRecord
100
AcDbTextStyleTableRecord
2
STANDARD
70
0
0
ENDTAB
0
TABLE
2
VIEW
5
6
100
AcDbSymbolTable
70
0
0
ENDTAB
0
TABLE
2
UCS
5
7
100
AcDbSymbolTable
70
0
0
ENDTAB
0
TABLE
2
APPID
5
9
100
AcDbSymbolTable
70
2
0
APPID
5
12
100
AcDbSymbolTableRecord
100
AcDbRegAppTableRecord
2
ACAD
70
0
0
ENDTAB
0
TABLE
2
DIMSTYLE
5
A
100
AcDbSymbolTable
70
1
0
ENDTAB
0
TABLE
2
BLOCK_RECORD
5
1
100
AcDbSymbolTable
70
1
0
BLOCK_RECORD
5
1F
100
AcDbSymbolTableRecord
100
AcDbBlockTableRecord
2
*MODEL_SPACE
0
BLOCK_RECORD
5
1B
100
AcDbSymbolTableRecord
100
AcDbBlockTableRecord
2
*PAPER_SPACE
0
ENDTAB
0
ENDSEC
0
SECTION
2
BLOCKS
0
BLOCK
5
20
100
AcDbEntity
100
AcDbBlockBegin
2
*MODEL_SPACE
0
ENDBLK
5
21
100
AcDbEntity
100
AcDbBlockEnd
0
BLOCK
5
1C
100
AcDbEntity
100
AcDbBlockBegin
2
*PAPER_SPACE
0
ENDBLK
5
1D
100
AcDbEntity
100
AcDbBlockEnd
0
ENDSEC
0
SECTION
2
ENTITIES
0
LWPOLYLINE
5
100
100
AcDbEntity
8
OUTER_PROFILES
100
AcDbPolyline
90
30
70
1
43
0.0
10
-6.0000000000000497
20
23.785840131753979
10
-6.0000000000000497
20
18.785840131753979
10
-6.0000000000000142
20
12.00000000000002
10
-6.0000000000000142
20
5.9999999999999964
42
0.41421356237309503
10
-5.8943864466923764e-16
20
-4.4408920985006262e-15
10
219.99999999999986
20
-4.4408920985006262e-15
42
0.41421356237309415
10
225.99999999999989
20
5.9999999999999778
10
225.99999999999989
20
12.00000000000002
10
225.99999999999989
20
18.785840131753979
10
225.99999999999989
20
23.785840131753979
10
225.99999999999991
20
172.78584013175404
10
225.99999999999989
20
179.57168026350791
10
225.99999999999991
20
185.57168026350794
42
0.41421356237309681
10
219.99999999999989
20
191.571680263508
10
182.99999999999989
20
191.57168026350797
42
0.41421356237309503
10
176.99999999999989
20
185.57168026350794
10
176.99999999999991
20
179.57168026350791
10
176.99999999999991
20
172.78584013175401
10
176.99999999999991
20
170.78584013175401
42
-0.41421356237309503
10
172.99999999999994
20
166.78584013175401
10
110.99999999999991
20
166.78584013175399
42
-0.41421356237309243
10
106.99999999999994
20
170.78584013175401
10
106.99999999999991
20
172.78584013175401
10
106.99999999999991
20
179.57168026350791
10
106.99999999999991
20
185.57168026350794
42
0.4142135623730942
10
100.99999999999994
20
191.57168026350797
10
-7.1054273576010019e-14
20
191.57168026350791
42
0.41421356237309503
10
-6.0000000000000719
20
185.57168026350791
10
-6.0000000000000142
20
179.57168026350791
10
-6.0000000000001208
20
172.78584013175404
0
CIRCLE
5
101
100
AcDbEntity
8
INTERIOR_PROFILES
100
AcDbCircle
10
-7.1054273576010019e-14
20
185.57168026350791
30
0
40
2.099999999999973
210
0
220
0
230
1
0
CIRCLE
5
102
100
AcDbEntity
8
INTERIOR_PROFILES
100
AcDbCircle
10
100.99999999999993
20
185.57168026350794
30
0
40
2.1000000000000085
210
0
220
0
230
1
0
CIRCLE
5
103
100
AcDbEntity
8
INTERIOR_PROFILES
100
AcDbCircle
10
182.99999999999989
20
185.57168026350794
30
0
40
2.1000000000000085
210
0
220
0
230
1
0
CIRCLE
5
104
100
AcDbEntity
8
INTERIOR_PROFILES
100
AcDbCircle
10
126.99999999999962
20
151.766602245287
30
0
40
1.6499999999999915
210
0
220
0
230
1
0
CIRCLE
5
105
100
AcDbEntity
8
INTERIOR_PROFILES
100
AcDbCircle
10
219.99999999999994
20
185.57168026350797
30
0
40
2.1000000000000085
210
0
220
0
230
1
0
CIRCLE
5
106
100
AcDbEntity
8
INTERIOR_PROFILES
100
AcDbCircle
10
156.99999999999969
20
151.76660224528729
30
0
40
1.6499999999999915
210
0
220
0
230
1
0
CIRCLE
5
107
100
AcDbEntity
8
INTERIOR_PROFILES
100
AcDbCircle
10
171.99999999999991
20
125.78584013175401
30
0
40
1.6499999999999915
210
0
220
0
230
1
0
CIRCLE
5
108
100
AcDbEntity
8
INTERIOR_PROFILES
100
AcDbCircle
10
157.00000000000006
20
99.805078018220911
30
0
40
1.6499999999999915
210
0
220
0
230
1
0
CIRCLE
5
109
100
AcDbEntity
8
INTERIOR_PROFILES
100
AcDbCircle
10
127
20
99.805078018220826
30
0
40
1.6499999999999915
210
0
220
0
230
1
0
CIRCLE
5
110
100
AcDbEntity
8
INTERIOR_PROFILES
100
AcDbCircle
10
111.99999999999994
20
125.78584013175401
30
0
40
1.6499999999999915
210
0
220
0
230
1
0
LWPOLYLINE
5
111
100
AcDbEntity
8
INTERIOR_PROFILES
100
AcDbPolyline
90
4
70
1
43
0.0
10
120.68421052631571
20
80.385840131754549
10
120.68421052631571
20
24.585840131754566
10
115.94736842105256
20
24.585840131754566
10
115.94736842105256
20
80.385840131754577
0
LWPOLYLINE
5
112
100
AcDbEntity
8
INTERIOR_PROFILES
100
AcDbPolyline
90
4
70
1
43
0.0
10
111.21052631578941
20
24.585840131754566
10
106.47368421052626
20
24.585840131754573
10
106.47368421052624
20
80.385840131754549
10
111.21052631578941
20
80.385840131754577
0
LWPOLYLINE
5
113
100
AcDbEntity
8
INTERIOR_PROFILES
100
AcDbPolyline
90
4
70
1
43
0.0
10
149.10526315789465
20
24.585840131754573
10
144.3684210526315
20
24.585840131754573
10
144.3684210526315
20
80.385840131754549
10
149.10526315789465
20
80.385840131754549
0
LWPOLYLINE
5
114
100
AcDbEntity
8
INTERIOR_PROFILES
100
AcDbPolyline
90
4
70
1
43
0.0
10
186.99999999999991
20
24.585840131754555
10
182.26315789473676
20
24.585840131754555
10
182.26315789473676
20
80.385840131754577
10
186.99999999999991
20
80.385840131754549
0
LWPOLYLINE
5
115
100
AcDbEntity
8
INTERIOR_PROFILES
100
AcDbPolyline
90
4
70
1
43
0.0
10
153.84210526315783
20
24.585840131754566
10
153.84210526315783
20
80.385840131754577
10
158.57894736842098
20
80.385840131754577
10
158.57894736842098
20
24.585840131754566
0
LWPOLYLINE
5
116
100
AcDbEntity
8
INTERIOR_PROFILES
100
AcDbPolyline
90
4
70
1
43
0.0
10
163.31578947368413
20
24.585840131754566
10
163.31578947368413
20
80.385840131754549
10
168.05263157894728
20
80.385840131754549
10
168.05263157894728
20
24.585840131754566
0
LWPOLYLINE
5
117
100
AcDbEntity
8
INTERIOR_PROFILES
100
AcDbPolyline
90
4
70
1
43
0.0
10
125.42105263157887
20
80.385840131754549
10
130.15789473684202
20
80.385840131754549
10
130.15789473684205
20
24.585840131754555
10
125.42105263157887
20
24.585840131754566
0
LWPOLYLINE
5
118
100
AcDbEntity
8
INTERIOR_PROFILES
100
AcDbPolyline
90
4
70
1
43
0.0
10
101.73684210526311
20
24.585840131754573
10
96.999999999999915
20
24.585840131754573
10
96.999999999999943
20
80.385840131754549
10
101.73684210526309
20
80.385840131754549
0
LWPOLYLINE
5
119
100
AcDbEntity
8
INTERIOR_PROFILES
100
AcDbPolyline
90
4
70
1
43
0.0
10
139.63157894736835
20
24.585840131754555
10
134.8947368421052
20
24.585840131754555
10
134.8947368421052
20
80.385840131754577
10
139.63157894736835
20
80.385840131754577
0
LWPOLYLINE
5
120
100
AcDbEntity
8
INTERIOR_PROFILES
100
AcDbPolyline
90
4
70
1
43
0.0
10
172.78947368421044
20
80.385840131754549
10
177.52631578947361
20
80.385840131754577
10
177.52631578947361
20
24.585840131754555
10
172.78947368421044
20
24.585840131754566
0
CIRCLE
5
121
100
AcDbEntity
8
INTERIOR_PROFILES
100
AcDbCircle
10
219.99999999999994
20
6.0000000000006004
30
0
40
2.0999999999999979
210
-0
220
0
230
1
0
CIRCLE
5
122
100
AcDbEntity
8
INTERIOR_PROFILES
100
AcDbCircle
10
-141.99999999999991
20
125.78584013175401
30
0
40
25
210
0
220
0
230
-1
0
CIRCLE
5
123
100
AcDbEntity
8
INTERIOR_PROFILES
100
AcDbCircle
10
182.99999999999994
20
6.0000000000006004
30
0
40
2.0999999999999908
210
-0
220
0
230
1
0
CIRCLE
5
124
100
AcDbEntity
8
INTERIOR_PROFILES
100
AcDbCircle
10
100.99999999999994
20
6.0000000000006093
30
0
40
2.0999999999999908
210
-0
220
0
230
1
0
CIRCLE
5
125
100
AcDbEntity
8
INTERIOR_PROFILES
100
AcDbCircle
10
0
20
6.0000000000006004
30
0
40
2.0999999999999908
210
0
220
0
230
1
0
LINE
5
126
100
AcDbEntity
8
BEND
100
AcDbLine
10
-6.0000000000000142
20
15.392920065877007
30
3.4416913763379853e-14
11
225.99999999999989
21
15.392920065877007
31
3.4416913763379853e-14
0
LINE
5
127
100
AcDbEntity
8
BEND
100
AcDbLine
10
225.99999999999994
20
176.17876019763094
30
2.3481709996954463e-14
11
176.99999999999991
21
176.17876019763094
31
2.5674521635437585e-14
0
LINE
5
128
100
AcDbEntity
8
BEND
100
AcDbLine
10
106.99999999999994
20
176.17876019763091
30
3.788697490631431e-14
11
-6.0000000000000497
21
176.17876019763091
31
5.5123066198771327e-14
0
LINE
5
129
100
AcDbEntity
8
BEND_EXTENT
100
AcDbLine
10
225.99999999999989
20
18.785840131753979
30
3.4416913763379853e-14
11
-6.0000000000000497
21
18.785840131753979
31
3.4416913763379853e-14
0
LINE
5
130
100
AcDbEntity
8
BEND_EXTENT
100
AcDbLine
10
176.99999999999991
20
172.78584013175401
30
2.8310687127941492e-14
11
225.99999999999991
21
172.78584013175404
31
3.5527136788005009e-14
0
LINE
5
131
100
AcDbEntity
8
BEND_EXTENT
100
AcDbLine
10
-6.0000000000001208
20
172.78584013175404
30
3.5527136788005009e-14
11
106.99999999999991
21
172.78584013175401
31
3.8857805861880479e-14
0
LINE
5
132
100
AcDbEntity
8
BEND_EXTENT
100
AcDbLine
10
106.99999999999991
20
179.57168026350791
30
6.2172489379008766e-14
11
-6.0000000000000142
21
179.57168026350791
31
7.1054273576010019e-14
0
LINE
5
133
100
AcDbEntity
8
BEND_EXTENT
100
AcDbLine
10
225.99999999999989
20
179.57168026350791
30
5.3290705182007514e-14
11
176.99999999999991
21
179.57168026350791
31
5.3290705182007514e-14
0
LINE
5
134
100
AcDbEntity
8
BEND_EXTENT
100
AcDbLine
10
-6.0000000000000142
20
12.00000000000002
30
1.7763568394002505e-14
11
225.99999999999989
21
12.00000000000002
31
1.7763568394002505e-14
0
ENDSEC
0
SECTION
2
OBJECTS
0
DICTIONARY
5
C
100
AcDbDictionary
3
ACAD_GROUP
350
D
3
ACAD_MLINESTYLE
350
17
0
DICTIONARY
5
D
100
AcDbDictionary
0
DICTIONARY
5
1A
330
C
100
AcDbDictionary
0
DICTIONARY
5
17
100
AcDbDictionary
0
ENDSEC
0
EOF
