0
SECTION
2
HEADER
9
$INSUNITS
70
4
9
$ACADVER
1
AC1014
9
$HANDSEED
5
FFFF
0
ENDSEC
0
SECTION
2
TABLES
0
TABLE
2
VPORT
5
8
100
AcDbSymbolTable
0
ENDTAB
0
TABLE
2
LTYPE
5
5
100
AcDbSymbolTable
0
LTYPE
5
14
100
AcDbSymbolTableRecord
100
AcDbLinetypeTableRecord
2
BYBLOCK
70
0
0
LTYPE
5
15
100
AcDbSymbolTableRecord
100
AcDbLinetypeTableRecord
2
BYLAYER
70
0
0
ENDTAB
0
TABLE
2
LAYER
5
2
100
AcDbSymbolTable
70
2
0
LAYER
5
50
100
AcDbSymbolTableRecord
100
AcDbLayerTableRecord
2
0
70
0
6
CONTINUOUS
0
ENDTAB
0
TABLE
2
STYLE
5
3
100
AcDbSymbolTable
70
1
0
STYLE
5
11
100
AcDbSymbolTableRecord
100
AcDbTextStyleTableRecord
2
STANDARD
70
0
0
ENDTAB
0
TABLE
2
VIEW
5
6
100
AcDbSymbolTable
70
0
0
ENDTAB
0
TABLE
2
UCS
5
7
100
AcDbSymbolTable
70
0
0
ENDTAB
0
TABLE
2
APPID
5
9
100
AcDbSymbolTable
70
2
0
APPID
5
12
100
AcDbSymbolTableRecord
100
AcDbRegAppTableRecord
2
ACAD
70
0
0
ENDTAB
0
TABLE
2
DIMSTYLE
5
A
100
AcDbSymbolTable
70
1
0
ENDTAB
0
TABLE
2
BLOCK_RECORD
5
1
100
AcDbSymbolTable
70
1
0
BLOCK_RECORD
5
1F
100
AcDbSymbolTableRecord
100
AcDbBlockTableRecord
2
*MODEL_SPACE
0
BLOCK_RECORD
5
1B
100
AcDbSymbolTableRecord
100
AcDbBlockTableRecord
2
*PAPER_SPACE
0
ENDTAB
0
ENDSEC
0
SECTION
2
BLOCKS
0
BLOCK
5
20
100
AcDbEntity
100
AcDbBlockBegin
2
*MODEL_SPACE
0
ENDBLK
5
21
100
AcDbEntity
100
AcDbBlockEnd
0
BLOCK
5
1C
100
AcDbEntity
100
AcDbBlockBegin
2
*PAPER_SPACE
0
ENDBLK
5
1D
100
AcDbEntity
100
AcDbBlockEnd
0
ENDSEC
0
SECTION
2
ENTITIES
0
LWPOLYLINE
5
100
100
AcDbEntity
8
OUTER_PROFILES
100
AcDbPolyline
90
8
70
1
43
0.0
10
250.00000000000003
20
159.99999999999997
10
250.00000000000003
20
7.9999999999999893
42
-0.41421356237309503
10
242.00000000000003
20
-1.7763568394002505e-14
10
1.8221263492091261e-15
20
-2.2204460492503131e-14
42
-0.41421356237309515
10
-7.9999999999999947
20
7.9999999999999725
10
-8.000000000000016
20
159.99999999999997
42
-0.41421356237309631
10
-8.822244479135008e-15
20
168
10
242.00000000000003
20
168.00000000000006
42
-0.41421356237309698
0
LWPOLYLINE
5
101
100
AcDbEntity
8
INTERIOR_PROFILES
100
AcDbPolyline
90
4
70
1
43
0.0
10
6.4000000000000856
20
152.99999999999903
10
6.4000000000000572
20
148.99999999999906
42
0.99999999999999989
10
11.600000000000039
20
148.99999999999906
10
11.60000000000001
20
152.99999999999903
42
0.99999999999999989
0
LWPOLYLINE
5
102
100
AcDbEntity
8
INTERIOR_PROFILES
100
AcDbPolyline
90
4
70
1
43
0.0
10
194.60000000000002
20
148.99999999999903
42
-0.99999999999999989
10
189.40000000000003
20
148.99999999999903
10
189.40000000000003
20
152.99999999999903
42
-0.99999999999999989
10
194.60000000000005
20
152.99999999999903
0
LWPOLYLINE
5
103
100
AcDbEntity
8
INTERIOR_PROFILES
100
AcDbPolyline
90
4
70
1
43
0.0
10
215.99999999999994
20
113.40000000000001
42
-0.99999999999999989
10
215.99999999999994
20
118.59999999999999
10
219.99999999999997
20
118.59999999999999
42
-0.99999999999999989
10
219.99999999999997
20
113.40000000000001
0
LWPOLYLINE
5
104
100
AcDbEntity
8
INTERIOR_PROFILES
100
AcDbPolyline
90
4
70
1
43
0.0
10
219.99999999999994
20
54.600000000000023
10
215.99999999999991
20
54.600000000000044
42
0.99999999999999989
10
215.99999999999991
20
49.400000000000048
10
219.99999999999994
20
49.400000000000063
42
0.99999999999999989
0
LWPOLYLINE
5
105
100
AcDbEntity
8
INTERIOR_PROFILES
100
AcDbPolyline
90
4
70
1
43
0.0
10
215.99999999999991
20
33.399999999999977
42
-0.99999999999999989
10
215.99999999999991
20
38.59999999999998
10
219.99999999999994
20
38.59999999999998
42
-0.99999999999999989
10
219.99999999999994
20
33.399999999999977
0
LWPOLYLINE
5
106
100
AcDbEntity
8
INTERIOR_PROFILES
100
AcDbPolyline
90
4
70
1
43
0.0
10
86.000000000001108
20
134.59999999999997
42
-0.99999999999999989
10
86.000000000001108
20
129.39999999999995
10
82.000000000001094
20
129.39999999999995
42
-0.99999999999999989
10
82.000000000001094
20
134.59999999999997
0
LWPOLYLINE
5
107
100
AcDbEntity
8
INTERIOR_PROFILES
100
AcDbPolyline
90
4
70
1
43
0.0
10
226.39999999999998
20
152.99999999999903
10
226.39999999999998
20
148.99999999999903
42
0.99999999999999989
10
231.59999999999999
20
148.99999999999903
10
231.59999999999999
20
152.99999999999903
42
0.99999999999999989
0
LWPOLYLINE
5
108
100
AcDbEntity
8
INTERIOR_PROFILES
100
AcDbPolyline
90
4
70
1
43
0.0
10
231.59999999999999
20
15.000000000000018
10
231.59999999999997
20
19.000000000000039
42
0.99999999999999989
10
226.40000000000001
20
19.000000000000039
10
226.39999999999998
20
15.000000000000018
42
0.99999999999999989
0
LWPOLYLINE
5
109
100
AcDbEntity
8
INTERIOR_PROFILES
100
AcDbPolyline
90
4
70
1
43
0.0
10
194.60000000000005
20
15.000000000000018
10
194.60000000000005
20
19.000000000000039
42
0.99999999999999989
10
189.40000000000001
20
19.000000000000039
10
189.40000000000001
20
15.000000000000018
42
0.99999999999999989
0
LWPOLYLINE
5
110
100
AcDbEntity
8
INTERIOR_PROFILES
100
AcDbPolyline
90
4
70
1
43
0.0
10
112.60000000000002
20
15.000000000000036
10
112.60000000000004
20
19.000000000000039
42
0.99999999999999989
10
107.40000000000003
20
19.000000000000039
10
107.40000000000006
20
15.000000000000036
42
0.99999999999999989
0
LWPOLYLINE
5
111
100
AcDbEntity
8
INTERIOR_PROFILES
100
AcDbPolyline
90
4
70
1
43
0.0
10
11.600000000000019
20
15.000000000000053
10
11.600000000000019
20
19.000000000000057
42
0.99999999999999989
10
6.4000000000000909
20
19.000000000000057
10
6.4000000000000945
20
15.000000000000053
42
0.99999999999999989
0
LWPOLYLINE
5
112
100
AcDbEntity
8
INTERIOR_PROFILES
100
AcDbPolyline
90
4
70
1
43
0.0
10
86.00000000000108
20
38.599999999999959
42
-0.99999999999999989
10
86.00000000000108
20
33.399999999999963
10
82.000000000001052
20
33.399999999999963
42
-0.99999999999999989
10
82.000000000001052
20
38.599999999999959
0
LWPOLYLINE
5
113
100
AcDbEntity
8
INTERIOR_PROFILES
100
AcDbPolyline
90
4
70
1
43
0.0
10
107.40000000000002
20
152.99999999999903
10
107.40000000000003
20
148.99999999999903
42
0.99999999999999989
10
112.60000000000004
20
148.99999999999903
10
112.60000000000005
20
152.99999999999903
42
0.99999999999999989
0
LWPOLYLINE
5
114
100
AcDbEntity
8
INTERIOR_PROFILES
100
AcDbPolyline
90
4
70
1
43
0.0
10
215.99999999999994
20
129.39999999999998
42
-0.99999999999999989
10
215.99999999999994
20
134.59999999999997
10
219.99999999999997
20
134.59999999999997
42
-0.99999999999999989
10
219.99999999999997
20
129.39999999999998
0
LWPOLYLINE
5
115
100
AcDbEntity
8
INTERIOR_PROFILES
100
AcDbPolyline
90
4
70
1
43
0.0
10
82.000000000001052
20
49.400000000000013
10
86.00000000000108
20
49.400000000000034
42
0.99999999999999989
10
86.00000000000108
20
54.600000000000023
10
82.000000000001052
20
54.600000000000044
42
0.99999999999999989
0
LWPOLYLINE
5
116
100
AcDbEntity
8
INTERIOR_PROFILES
100
AcDbPolyline
90
4
70
1
43
0.0
10
86.000000000001108
20
118.59999999999999
42
-0.99999999999999989
10
86.000000000001108
20
113.40000000000001
10
82.000000000001094
20
113.40000000000001
42
-0.99999999999999989
10
82.000000000001094
20
118.59999999999999
0
CIRCLE
5
117
100
AcDbEntity
8
INTERIOR_PROFILES
100
AcDbCircle
10
-48.499999998143593
20
66.698637612910119
30
0
40
1.7500000000000071
210
0
220
0
230
-1
0
CIRCLE
5
118
100
AcDbEntity
8
INTERIOR_PROFILES
100
AcDbCircle
10
-14.999999999999991
20
131.99999999999875
30
0
40
2.5999999999999979
210
0
220
0
230
-1
0
CIRCLE
5
119
100
AcDbEntity
8
INTERIOR_PROFILES
100
AcDbCircle
10
-48.49999999814316
20
101.5954206966471
30
0
40
1.7500000000000071
210
0
220
0
230
-1
0
CIRCLE
5
120
100
AcDbEntity
8
INTERIOR_PROFILES
100
AcDbCircle
10
-15.000000000000036
20
35.999999999998735
30
0
40
2.5999999999999979
210
0
220
0
230
-1
0
CIRCLE
5
121
100
AcDbEntity
8
INTERIOR_PROFILES
100
AcDbCircle
10
8.8817841970012523e-15
20
159.99999999999997
30
0
40
2.6000000000000156
210
0
220
0
230
-1
0
CIRCLE
5
122
100
AcDbEntity
8
INTERIOR_PROFILES
100
AcDbCircle
10
1.1102230246251565e-15
20
7.9999999999999716
30
0
40
2.6000000000000045
210
0
220
0
230
-1
0
CIRCLE
5
123
100
AcDbEntity
8
INTERIOR_PROFILES
100
AcDbCircle
10
-242.00000000000003
20
159.99999999999997
30
0
40
2.5999999999999979
210
0
220
0
230
-1
0
CIRCLE
5
124
100
AcDbEntity
8
INTERIOR_PROFILES
100
AcDbCircle
10
-242.00000000000003
20
7.9999999999999893
30
0
40
2.6000000000000045
210
0
220
0
230
-1
0
ENDSEC
0
SECTION
2
OBJECTS
0
DICTIONARY
5
C
100
AcDbDictionary
3
ACAD_GROUP
350
D
3
ACAD_MLINESTYLE
350
17
0
DICTIONARY
5
D
100
AcDbDictionary
0
DICTIONARY
5
1A
330
C
100
AcDbDictionary
0
DICTIONARY
5
17
100
AcDbDictionary
0
ENDSEC
0
EOF
