0
SECTION
2
HEADER
9
$INSUNITS
70
4
9
$ACADVER
1
AC1014
9
$HANDSEED
5
FFFF
0
ENDSEC
0
SECTION
2
TABLES
0
TABLE
2
VPORT
5
8
100
AcDbSymbolTable
0
ENDTAB
0
TABLE
2
LTYPE
5
5
100
AcDbSymbolTable
0
LTYPE
5
14
100
AcDbSymbolTableRecord
100
AcDbLinetypeTableRecord
2
BYBLOCK
70
0
0
LTYPE
5
15
100
AcDbSymbolTableRecord
100
AcDbLinetypeTableRecord
2
BYLAYER
70
0
0
ENDTAB
0
TABLE
2
LAYER
5
2
100
AcDbSymbolTable
70
2
0
LAYER
5
50
100
AcDbSymbolTableRecord
100
AcDbLayerTableRecord
2
0
70
0
6
CONTINUOUS
0
ENDTAB
0
TABLE
2
STYLE
5
3
100
AcDbSymbolTable
70
1
0
STYLE
5
11
100
AcDbSymbolTableRecord
100
AcDbTextStyleTableRecord
2
STANDARD
70
0
0
ENDTAB
0
TABLE
2
VIEW
5
6
100
AcDbSymbolTable
70
0
0
ENDTAB
0
TABLE
2
UCS
5
7
100
AcDbSymbolTable
70
0
0
ENDTAB
0
TABLE
2
APPID
5
9
100
AcDbSymbolTable
70
2
0
APPID
5
12
100
AcDbSymbolTableRecord
100
AcDbRegAppTableRecord
2
ACAD
70
0
0
ENDTAB
0
TABLE
2
DIMSTYLE
5
A
100
AcDbSymbolTable
70
1
0
ENDTAB
0
TABLE
2
BLOCK_RECORD
5
1
100
AcDbSymbolTable
70
1
0
BLOCK_RECORD
5
1F
100
AcDbSymbolTableRecord
100
AcDbBlockTableRecord
2
*MODEL_SPACE
0
BLOCK_RECORD
5
1B
100
AcDbSymbolTableRecord
100
AcDbBlockTableRecord
2
*PAPER_SPACE
0
ENDTAB
0
ENDSEC
0
SECTION
2
BLOCKS
0
BLOCK
5
20
100
AcDbEntity
100
AcDbBlockBegin
2
*MODEL_SPACE
0
ENDBLK
5
21
100
AcDbEntity
100
AcDbBlockEnd
0
BLOCK
5
1C
100
AcDbEntity
100
AcDbBlockBegin
2
*PAPER_SPACE
0
ENDBLK
5
1D
100
AcDbEntity
100
AcDbBlockEnd
0
ENDSEC
0
SECTION
2
ENTITIES
0
LWPOLYLINE
5
100
100
AcDbEntity
8
OUTER_PROFILES
100
AcDbPolyline
90
18
70
1
43
0.0
10
0
20
108
10
-5
20
108
10
-11.785840131753961
20
108
10
-17.785840131753975
20
108
42
0.4142135623730942
10
-23.785840131753957
20
102.00000000000001
10
-23.785840131753957
20
5.9999999999999964
42
0.41421356237309503
10
-17.785840131753957
20
-4.4408920985006262e-15
10
-11.785840131753925
20
8.8817841970012523e-15
10
-5
20
0
10
0
20
0
10
149.00000000000003
20
0
10
155.78584013175401
20
8.8817841970012523e-15
10
161.78584013175401
20
3.3306690738754696e-15
42
0.41421356237309503
10
167.78584013175404
20
6.0000000000000053
10
167.78584013175404
20
102.00000000000003
42
0.41421356237309503
10
161.78584013175401
20
108.00000000000003
10
155.78584013175399
20
108
10
149.00000000000003
20
108
0
LWPOLYLINE
5
101
100
AcDbEntity
8
INTERIOR_PROFILES
100
AcDbPolyline
90
4
70
1
43
0.0
10
1.5500000000001348
20
27.65000000000083
42
-0.99999999999999989
10
1.5500000000001339
20
33.250000000000838
10
8.6500059902675712
20
33.250000000000838
42
-0.99999999999999989
10
8.6500059902675712
20
27.65000000000083
0
LWPOLYLINE
5
102
100
AcDbEntity
8
INTERIOR_PROFILES
100
AcDbPolyline
90
4
70
1
43
0.0
10
55.650005990267573
20
27.65000000000083
10
48.550000000000139
20
27.65000000000083
42
-0.99999999999999989
10
48.550000000000139
20
33.250000000000838
10
55.650005990267573
20
33.250000000000838
42
-0.99999999999999989
0
LWPOLYLINE
5
103
100
AcDbEntity
8
INTERIOR_PROFILES
100
AcDbPolyline
90
4
70
1
43
0.0
10
1.5499999999999745
20
80.350000000000847
10
8.6500059902674113
20
80.350000000000847
42
-0.99999999999999989
10
8.6500059902674113
20
74.750000000000853
10
1.5499999999999747
20
74.750000000000853
42
-0.99999999999999989
0
LWPOLYLINE
5
104
100
AcDbEntity
8
INTERIOR_PROFILES
100
AcDbPolyline
90
5
70
1
43
0.0
10
12.840217104201166
20
72.999775585728216
10
41.96181035550196
20
72.999775585728187
42
-0.53256366197520177
10
41.709705094799673
20
34.830665207076279
10
26.079549643255845
20
35.000166530880051
10
12.807384904733166
20
35.028197979004091
42
-0.46173097352103731
0
LWPOLYLINE
5
105
100
AcDbEntity
8
INTERIOR_PROFILES
100
AcDbPolyline
90
4
70
1
43
0.0
10
48.549999999999976
20
80.350000000000847
10
55.650005990267417
20
80.350000000000847
42
-0.99999999999999989
10
55.650005990267417
20
74.750000000000853
10
48.549999999999976
20
74.750000000000853
42
-0.99999999999999989
0
CIRCLE
5
106
100
AcDbEntity
8
INTERIOR_PROFILES
100
AcDbCircle
10
161.78584013175401
20
102.00000000000003
30
0
40
2.0999999999999908
210
0
220
0
230
1
0
CIRCLE
5
107
100
AcDbEntity
8
INTERIOR_PROFILES
100
AcDbCircle
10
161.78584013175339
20
85.999999999999957
30
0
40
2.0999999999999908
210
0
220
0
230
1
0
CIRCLE
5
108
100
AcDbEntity
8
INTERIOR_PROFILES
100
AcDbCircle
10
127.98076211353303
20
38.999999999999687
30
0
40
1.6499999999999915
210
0
220
-0
230
1
0
CIRCLE
5
109
100
AcDbEntity
8
INTERIOR_PROFILES
100
AcDbCircle
10
161.78584013175339
20
21.999999999999979
30
0
40
2.0999999999999908
210
0
220
0
230
1
0
CIRCLE
5
110
100
AcDbEntity
8
INTERIOR_PROFILES
100
AcDbCircle
10
161.78584013175401
20
6.0000000000000053
30
0
40
2.0999999999999908
210
0
220
0
230
1
0
CIRCLE
5
111
100
AcDbEntity
8
INTERIOR_PROFILES
100
AcDbCircle
10
127.98076211353334
20
68.999999999999744
30
0
40
1.6499999999999915
210
0
220
-0
230
1
0
CIRCLE
5
112
100
AcDbEntity
8
INTERIOR_PROFILES
100
AcDbCircle
10
102.00000000000003
20
83.999999999999986
30
0
40
1.6499999999999915
210
0
220
-0
230
1
0
CIRCLE
5
113
100
AcDbEntity
8
INTERIOR_PROFILES
100
AcDbCircle
10
76.019237886466939
20
69.000000000000114
30
0
40
1.6499999999999915
210
0
220
-0
230
1
0
CIRCLE
5
114
100
AcDbEntity
8
INTERIOR_PROFILES
100
AcDbCircle
10
76.019237886466854
20
39.00000000000005
30
0
40
1.6499999999999915
210
0
220
-0
230
1
0
CIRCLE
5
115
100
AcDbEntity
8
INTERIOR_PROFILES
100
AcDbCircle
10
102.00000000000003
20
23.999999999999986
30
0
40
1.6499999999999915
210
0
220
-0
230
1
0
CIRCLE
5
116
100
AcDbEntity
8
INTERIOR_PROFILES
100
AcDbCircle
10
-17.785840131753353
20
6.0000000000000053
30
0
40
2.0999999999999952
210
0
220
0
230
1
0
CIRCLE
5
117
100
AcDbEntity
8
INTERIOR_PROFILES
100
AcDbCircle
10
-17.785840131752732
20
21.999999999999979
30
0
40
2.0999999999999952
210
0
220
0
230
1
0
CIRCLE
5
118
100
AcDbEntity
8
INTERIOR_PROFILES
100
AcDbCircle
10
-17.785840131752696
20
85.999999999999957
30
0
40
2.0999999999999908
210
0
220
0
230
1
0
CIRCLE
5
119
100
AcDbEntity
8
INTERIOR_PROFILES
100
AcDbCircle
10
-17.785840131753353
20
102.00000000000003
30
0
40
2.0999999999999908
210
0
220
0
230
1
0
CIRCLE
5
120
100
AcDbEntity
8
INTERIOR_PROFILES
100
AcDbCircle
10
-102.00000000000003
20
53.999999999999986
30
0
40
25
210
0
220
0
230
-1
0
LINE
5
121
100
AcDbEntity
8
BEND
100
AcDbLine
10
-8.3929200658769449
20
108
30
4.652511286569334e-15
11
-8.3929200658769449
21
0
31
4.6525112865693355e-15
0
LINE
5
122
100
AcDbEntity
8
BEND
100
AcDbLine
10
152.39292006587706
20
8.8817841970012523e-15
30
-1.8995646335486778e-14
11
152.39292006587706
21
108
31
1.4311044403268086e-14
0
LINE
5
123
100
AcDbEntity
8
BEND_EXTENT
100
AcDbLine
10
-5
20
0
30
-8.8817841970012523e-15
11
-5
21
108
31
-8.8817841970012523e-15
0
LINE
5
124
100
AcDbEntity
8
BEND_EXTENT
100
AcDbLine
10
149.00000000000003
20
108
30
1.4976426786496144e-30
11
149.00000000000003
21
0
31
1.4976426786496144e-30
0
LINE
5
125
100
AcDbEntity
8
BEND_EXTENT
100
AcDbLine
10
155.78584013175401
20
8.8817841970012523e-15
30
3.5527136788005009e-14
11
155.78584013175399
21
108
31
3.5527136788005009e-14
0
LINE
5
126
100
AcDbEntity
8
BEND_EXTENT
100
AcDbLine
10
-11.785840131753961
20
108
30
3.219646771412954e-14
11
-11.785840131753925
21
0
31
3.2474023470285829e-14
0
ENDSEC
0
SECTION
2
OBJECTS
0
DICTIONARY
5
C
100
AcDbDictionary
3
ACAD_GROUP
350
D
3
ACAD_MLINESTYLE
350
17
0
DICTIONARY
5
D
100
AcDbDictionary
0
DICTIONARY
5
1A
330
C
100
AcDbDictionary
0
DICTIONARY
5
17
100
AcDbDictionary
0
ENDSEC
0
EOF
