0
SECTION
2
HEADER
9
$INSUNITS
70
4
9
$ACADVER
1
AC1014
9
$HANDSEED
5
FFFF
0
ENDSEC
0
SECTION
2
TABLES
0
TABLE
2
VPORT
5
8
100
AcDbSymbolTable
0
ENDTAB
0
TABLE
2
LTYPE
5
5
100
AcDbSymbolTable
0
LTYPE
5
14
100
AcDbSymbolTableRecord
100
AcDbLinetypeTableRecord
2
BYBLOCK
70
0
0
LTYPE
5
15
100
AcDbSymbolTableRecord
100
AcDbLinetypeTableRecord
2
BYLAYER
70
0
0
ENDTAB
0
TABLE
2
LAYER
5
2
100
AcDbSymbolTable
70
2
0
LAYER
5
50
100
AcDbSymbolTableRecord
100
AcDbLayerTableRecord
2
0
70
0
6
CONTINUOUS
0
ENDTAB
0
TABLE
2
STYLE
5
3
100
AcDbSymbolTable
70
1
0
STYLE
5
11
100
AcDbSymbolTableRecord
100
AcDbTextStyleTableRecord
2
STANDARD
70
0
0
ENDTAB
0
TABLE
2
VIEW
5
6
100
AcDbSymbolTable
70
0
0
ENDTAB
0
TABLE
2
UCS
5
7
100
AcDbSymbolTable
70
0
0
ENDTAB
0
TABLE
2
APPID
5
9
100
AcDbSymbolTable
70
2
0
APPID
5
12
100
AcDbSymbolTableRecord
100
AcDbRegAppTableRecord
2
ACAD
70
0
0
ENDTAB
0
TABLE
2
DIMSTYLE
5
A
100
AcDbSymbolTable
70
1
0
ENDTAB
0
TABLE
2
BLOCK_RECORD
5
1
100
AcDbSymbolTable
70
1
0
BLOCK_RECORD
5
1F
100
AcDbSymbolTableRecord
100
AcDbBlockTableRecord
2
*MODEL_SPACE
0
BLOCK_RECORD
5
1B
100
AcDbSymbolTableRecord
100
AcDbBlockTableRecord
2
*PAPER_SPACE
0
ENDTAB
0
ENDSEC
0
SECTION
2
BLOCKS
0
BLOCK
5
20
100
AcDbEntity
100
AcDbBlockBegin
2
*MODEL_SPACE
0
ENDBLK
5
21
100
AcDbEntity
100
AcDbBlockEnd
0
BLOCK
5
1C
100
AcDbEntity
100
AcDbBlockBegin
2
*PAPER_SPACE
0
ENDBLK
5
1D
100
AcDbEntity
100
AcDbBlockEnd
0
ENDSEC
0
SECTION
2
ENTITIES
0
LWPOLYLINE
5
100
100
AcDbEntity
8
OUTER_PROFILES
100
AcDbPolyline
90
18
70
1
43
0.0
10
167.78584013175404
20
5.9999999999999964
10
167.78584013175401
20
102.00000000000001
42
0.41421356237309503
10
161.78584013175401
20
108
10
155.78584013175401
20
108
10
149.00000000000003
20
108
10
0
20
108
10
-4.9999999999999991
20
108
10
-11.785840131753922
20
108
10
-17.785840131753972
20
107.99999999999999
42
0.41421356237309503
10
-23.785840131753972
20
102
10
-23.78584013175395
20
5.9999999999999787
42
0.41421356237309465
10
-17.785840131753972
20
-1.3322676295501878e-14
10
-11.785840131753922
20
0
10
-5
20
0
10
0
20
0
10
149.00000000000003
20
0
10
155.78584013175399
20
0
10
161.78584013175401
20
-5.5511151231257827e-15
42
0.41421356237309503
0
CIRCLE
5
101
100
AcDbEntity
8
INTERIOR_PROFILES
100
AcDbCircle
10
-17.785840131753332
20
102.00000000000001
30
0
40
2.0999999999999908
210
0
220
0
230
1
0
CIRCLE
5
102
100
AcDbEntity
8
INTERIOR_PROFILES
100
AcDbCircle
10
-17.785840131752693
20
85.999999999999957
30
0
40
2.0999999999999908
210
0
220
0
230
1
0
CIRCLE
5
103
100
AcDbEntity
8
INTERIOR_PROFILES
100
AcDbCircle
10
-17.785840131752693
20
21.999999999999975
30
0
40
2.0999999999999952
210
0
220
0
230
1
0
LWPOLYLINE
5
104
100
AcDbEntity
8
INTERIOR_PROFILES
100
AcDbPolyline
90
4
70
1
43
0.0
10
57.350966079058296
20
44.285714285714292
10
0.65096607905829273
20
44.285714285714292
10
0.65096607905829285
20
49.142857142857146
10
57.350966079058296
20
49.142857142857146
0
LWPOLYLINE
5
105
100
AcDbEntity
8
INTERIOR_PROFILES
100
AcDbPolyline
90
4
70
1
43
0.0
10
0.65096607905829296
20
88
10
57.350966079058296
20
88
10
57.350966079058296
20
83.142857142857153
10
0.65096607905829273
20
83.142857142857153
0
LWPOLYLINE
5
106
100
AcDbEntity
8
INTERIOR_PROFILES
100
AcDbPolyline
90
4
70
1
43
0.0
10
57.350966079058296
20
58.857142857142861
10
57.350966079058296
20
54
10
0.65096607905829273
20
54
10
0.65096607905829285
20
58.857142857142861
0
LWPOLYLINE
5
107
100
AcDbEntity
8
INTERIOR_PROFILES
100
AcDbPolyline
90
4
70
1
43
0.0
10
57.350966079058296
20
39.428571428571431
10
57.350966079058296
20
34.571428571428569
10
0.65096607905829273
20
34.571428571428569
10
0.65096607905829285
20
39.428571428571431
0
LWPOLYLINE
5
108
100
AcDbEntity
8
INTERIOR_PROFILES
100
AcDbPolyline
90
4
70
1
43
0.0
10
57.350966079058296
20
73.428571428571431
10
0.65096607905829273
20
73.428571428571431
10
0.65096607905829296
20
78.285714285714292
10
57.350966079058296
20
78.285714285714292
0
LWPOLYLINE
5
109
100
AcDbEntity
8
INTERIOR_PROFILES
100
AcDbPolyline
90
4
70
1
43
0.0
10
57.350966079058296
20
29.714285714285715
10
57.350966079058296
20
24.857142857142858
10
0.65096607905829273
20
24.857142857142858
10
0.65096607905829285
20
29.714285714285715
0
LWPOLYLINE
5
110
100
AcDbEntity
8
INTERIOR_PROFILES
100
AcDbPolyline
90
4
70
1
43
0.0
10
57.350966079058296
20
68.571428571428584
10
57.350966079058296
20
63.714285714285722
10
0.65096607905829273
20
63.714285714285722
10
0.65096607905829296
20
68.571428571428584
0
CIRCLE
5
111
100
AcDbEntity
8
INTERIOR_PROFILES
100
AcDbCircle
10
161.78584013175401
20
102.00000000000001
30
0
40
2.0999999999999908
210
0
220
0
230
1
0
CIRCLE
5
112
100
AcDbEntity
8
INTERIOR_PROFILES
100
AcDbCircle
10
161.78584013175339
20
85.999999999999957
30
0
40
2.0999999999999908
210
0
220
0
230
1
0
CIRCLE
5
113
100
AcDbEntity
8
INTERIOR_PROFILES
100
AcDbCircle
10
161.78584013175339
20
21.999999999999975
30
0
40
2.0999999999999908
210
0
220
0
230
1
0
CIRCLE
5
114
100
AcDbEntity
8
INTERIOR_PROFILES
100
AcDbCircle
10
161.78584013175401
20
5.9999999999999964
30
0
40
2.0999999999999908
210
0
220
0
230
1
0
CIRCLE
5
115
100
AcDbEntity
8
INTERIOR_PROFILES
100
AcDbCircle
10
127.98076211353302
20
38.999999999999687
30
0
40
1.6499999999999915
210
-0
220
0
230
1
0
CIRCLE
5
116
100
AcDbEntity
8
INTERIOR_PROFILES
100
AcDbCircle
10
102.00000000000003
20
83.999999999999986
30
0
40
1.6499999999999915
210
-0
220
0
230
1
0
CIRCLE
5
117
100
AcDbEntity
8
INTERIOR_PROFILES
100
AcDbCircle
10
127.98076211353333
20
68.999999999999744
30
0
40
1.6499999999999915
210
-0
220
0
230
1
0
CIRCLE
5
118
100
AcDbEntity
8
INTERIOR_PROFILES
100
AcDbCircle
10
76.01923788646684
20
39.00000000000005
30
0
40
1.6499999999999915
210
-0
220
0
230
1
0
CIRCLE
5
119
100
AcDbEntity
8
INTERIOR_PROFILES
100
AcDbCircle
10
76.019237886466939
20
69.000000000000114
30
0
40
1.6499999999999915
210
-0
220
0
230
1
0
CIRCLE
5
120
100
AcDbEntity
8
INTERIOR_PROFILES
100
AcDbCircle
10
-102.00000000000003
20
53.999999999999986
30
0
40
25
210
0
220
0
230
-1
0
CIRCLE
5
121
100
AcDbEntity
8
INTERIOR_PROFILES
100
AcDbCircle
10
102.00000000000003
20
23.999999999999989
30
0
40
1.6499999999999915
210
-0
220
0
230
1
0
CIRCLE
5
122
100
AcDbEntity
8
INTERIOR_PROFILES
100
AcDbCircle
10
-17.785840131753332
20
5.9999999999999964
30
0
40
2.0999999999999952
210
0
220
0
230
1
0
LINE
5
123
100
AcDbEntity
8
BEND
100
AcDbLine
10
152.39292006587706
20
0
30
-1.1560226420072875e-14
11
152.39292006587706
21
108
31
2.1746464318681985e-14
0
LINE
5
124
100
AcDbEntity
8
BEND
100
AcDbLine
10
-8.3929200658769787
20
108
30
3.2982972943783268e-15
11
-8.3929200658769787
21
0
31
3.2982972943783268e-15
0
LINE
5
125
100
AcDbEntity
8
BEND_EXTENT
100
AcDbLine
10
149.00000000000003
20
108
30
1.4034394551136738e-46
11
149.00000000000003
21
0
31
1.4034394551136738e-46
0
LINE
5
126
100
AcDbEntity
8
BEND_EXTENT
100
AcDbLine
10
-5
20
0
30
-4.7095283728646757e-48
11
-5
21
108
31
-4.7095283728646757e-48
0
LINE
5
127
100
AcDbEntity
8
BEND_EXTENT
100
AcDbLine
10
155.78584013175399
20
0
30
-3.5527136788005009e-14
11
155.78584013175401
21
108
31
-3.5527136788005009e-14
0
LINE
5
128
100
AcDbEntity
8
BEND_EXTENT
100
AcDbLine
10
-11.785840131753922
20
108
30
2.0677903833643541e-14
11
-11.785840131753922
21
0
31
2.0400348077487251e-14
0
ENDSEC
0
SECTION
2
OBJECTS
0
DICTIONARY
5
C
100
AcDbDictionary
3
ACAD_GROUP
350
D
3
ACAD_MLINESTYLE
350
17
0
DICTIONARY
5
D
100
AcDbDictionary
0
DICTIONARY
5
1A
330
C
100
AcDbDictionary
0
DICTIONARY
5
17
100
AcDbDictionary
0
ENDSEC
0
EOF
