0
SECTION
2
HEADER
9
$INSUNITS
70
4
9
$ACADVER
1
AC1014
9
$HANDSEED
5
FFFF
0
ENDSEC
0
SECTION
2
TABLES
0
TABLE
2
VPORT
5
8
100
AcDbSymbolTable
0
ENDTAB
0
TABLE
2
LTYPE
5
5
100
AcDbSymbolTable
0
LTYPE
5
14
100
AcDbSymbolTableRecord
100
AcDbLinetypeTableRecord
2
BYBLOCK
70
0
0
LTYPE
5
15
100
AcDbSymbolTableRecord
100
AcDbLinetypeTableRecord
2
BYLAYER
70
0
0
ENDTAB
0
TABLE
2
LAYER
5
2
100
AcDbSymbolTable
70
2
0
LAYER
5
50
100
AcDbSymbolTableRecord
100
AcDbLayerTableRecord
2
0
70
0
6
CONTINUOUS
0
ENDTAB
0
TABLE
2
STYLE
5
3
100
AcDbSymbolTable
70
1
0
STYLE
5
11
100
AcDbSymbolTableRecord
100
AcDbTextStyleTableRecord
2
STANDARD
70
0
0
ENDTAB
0
TABLE
2
VIEW
5
6
100
AcDbSymbolTable
70
0
0
ENDTAB
0
TABLE
2
UCS
5
7
100
AcDbSymbolTable
70
0
0
ENDTAB
0
TABLE
2
APPID
5
9
100
AcDbSymbolTable
70
2
0
APPID
5
12
100
AcDbSymbolTableRecord
100
AcDbRegAppTableRecord
2
ACAD
70
0
0
ENDTAB
0
TABLE
2
DIMSTYLE
5
A
100
AcDbSymbolTable
70
1
0
ENDTAB
0
TABLE
2
BLOCK_RECORD
5
1
100
AcDbSymbolTable
70
1
0
BLOCK_RECORD
5
1F
100
AcDbSymbolTableRecord
100
AcDbBlockTableRecord
2
*MODEL_SPACE
0
BLOCK_RECORD
5
1B
100
AcDbSymbolTableRecord
100
AcDbBlockTableRecord
2
*PAPER_SPACE
0
ENDTAB
0
ENDSEC
0
SECTION
2
BLOCKS
0
BLOCK
5
20
100
AcDbEntity
100
AcDbBlockBegin
2
*MODEL_SPACE
0
ENDBLK
5
21
100
AcDbEntity
100
AcDbBlockEnd
0
BLOCK
5
1C
100
AcDbEntity
100
AcDbBlockBegin
2
*PAPER_SPACE
0
ENDBLK
5
1D
100
AcDbEntity
100
AcDbBlockEnd
0
ENDSEC
0
SECTION
2
ENTITIES
0
LWPOLYLINE
5
100
100
AcDbEntity
8
OUTER_PROFILES
100
AcDbPolyline
90
8
70
1
43
0.0
10
-8.0000000000000426
20
8.0000000000000071
42
0.41421356237309553
10
-3.5527136788005009e-14
20
0
10
215.99999999999997
20
0
42
0.41421356237309503
10
224
20
8.0000000000000071
10
224
20
159.99999999999994
42
0.41421356237309825
10
215.99999999999994
20
167.99999999999997
10
-4.4876151079679381e-14
20
167.99999999999997
42
0.41421356237309503
10
-8.000000000000087
20
159.99999999999997
0
LWPOLYLINE
5
101
100
AcDbEntity
8
INTERIOR_PROFILES
100
AcDbPolyline
90
4
70
1
43
0.0
10
41.849999999999731
20
86.995453605922734
10
41.849999999999675
20
88.716131487209395
42
0.072361358265154468
10
38.149999999999665
20
88.716131487209324
10
38.149999999999665
20
86.995453605922663
42
-0.083538591393099867
0
LWPOLYLINE
5
102
100
AcDbEntity
8
INTERIOR_PROFILES
100
AcDbPolyline
90
4
70
1
43
0.0
10
215.39999999999992
20
152.99999999999903
10
215.39999999999989
20
148.99999999999903
42
0.99999999999999989
10
220.59999999999991
20
148.99999999999903
10
220.59999999999997
20
152.99999999999903
42
0.99999999999999989
0
LWPOLYLINE
5
103
100
AcDbEntity
8
INTERIOR_PROFILES
100
AcDbPolyline
90
4
70
1
43
0.0
10
75.000000000001023
20
134.59999999999997
10
71.000000000001023
20
134.59999999999997
42
0.99999999999999989
10
71.000000000001023
20
129.39999999999995
10
75.000000000001023
20
129.39999999999995
42
0.99999999999999989
0
LWPOLYLINE
5
104
100
AcDbEntity
8
INTERIOR_PROFILES
100
AcDbPolyline
90
4
70
1
43
0.0
10
41.850000000000271
20
59.995453605922762
10
41.850000000000222
20
61.716131487209438
42
0.072361358265154357
10
38.150000000000205
20
61.716131487209367
10
38.150000000000205
20
59.995453605922691
42
-0.083538591393099867
0
LWPOLYLINE
5
105
100
AcDbEntity
8
INTERIOR_PROFILES
100
AcDbPolyline
90
4
70
1
43
0.0
10
183.59999999999997
20
15.000000000000027
10
183.59999999999999
20
19.000000000000028
42
0.99999999999999989
10
178.39999999999998
20
19.000000000000028
10
178.39999999999992
20
15.000000000000027
42
0.99999999999999989
0
LWPOLYLINE
5
106
100
AcDbEntity
8
INTERIOR_PROFILES
100
AcDbPolyline
90
4
70
1
43
0.0
10
215.39999999999992
20
19.000000000000039
10
215.39999999999998
20
15.000000000000036
42
0.99999999999999989
10
220.59999999999997
20
15.000000000000036
10
220.59999999999997
20
19.000000000000039
42
0.99999999999999989
0
LWPOLYLINE
5
107
100
AcDbEntity
8
INTERIOR_PROFILES
100
AcDbPolyline
90
4
70
1
43
0.0
10
101.59999999999997
20
15.000000000000044
10
101.59999999999995
20
19.00000000000005
42
0.99999999999999989
10
96.399999999999949
20
19.00000000000005
10
96.399999999999935
20
15.000000000000044
42
0.99999999999999989
0
LWPOLYLINE
5
108
100
AcDbEntity
8
INTERIOR_PROFILES
100
AcDbPolyline
90
4
70
1
43
0.0
10
0.59999999999996168
20
15.000000000000053
42
-0.99999999999999989
10
-4.599999999999965
20
15.000000000000053
10
-4.599999999999965
20
19.000000000000064
42
-0.99999999999999989
10
0.59999999999996056
20
19.000000000000064
0
LWPOLYLINE
5
109
100
AcDbEntity
8
INTERIOR_PROFILES
100
AcDbPolyline
90
4
70
1
43
0.0
10
71.000000000001009
20
33.39999999999997
42
-0.99999999999999989
10
71.000000000001009
20
38.599999999999966
10
75.000000000001009
20
38.599999999999966
42
-0.99999999999999989
10
75.000000000001009
20
33.39999999999997
0
LWPOLYLINE
5
110
100
AcDbEntity
8
INTERIOR_PROFILES
100
AcDbPolyline
90
4
70
1
43
0.0
10
71.000000000001052
20
113.40000000000001
42
-0.99999999999999989
10
71.000000000001052
20
118.59999999999999
10
75.000000000001023
20
118.59999999999999
42
-0.99999999999999989
10
75.000000000001023
20
113.40000000000001
0
LWPOLYLINE
5
111
100
AcDbEntity
8
INTERIOR_PROFILES
100
AcDbPolyline
90
4
70
1
43
0.0
10
208.99999999999989
20
134.59999999999997
10
204.99999999999994
20
134.59999999999997
42
0.99999999999999989
10
204.99999999999986
20
129.39999999999998
10
208.99999999999989
20
129.39999999999998
42
0.99999999999999989
0
CIRCLE
5
112
100
AcDbEntity
8
INTERIOR_PROFILES
100
AcDbCircle
10
-3.9999999999999281
20
131.99999999999875
30
0
40
2.5999999999999979
210
0
220
0
230
-1
0
CIRCLE
5
113
100
AcDbEntity
8
INTERIOR_PROFILES
100
AcDbCircle
10
-3.9999999999999636
20
35.999999999998728
30
0
40
2.5999999999999979
210
0
220
0
230
-1
0
LWPOLYLINE
5
114
100
AcDbEntity
8
INTERIOR_PROFILES
100
AcDbPolyline
90
4
70
1
43
0.0
10
-4.6000000000000192
20
152.99999999999903
42
-0.99999999999999989
10
0.59999999999996279
20
152.99999999999903
10
0.59999999999996279
20
148.99999999999906
42
-0.99999999999999989
10
-4.6000000000000192
20
148.99999999999906
0
LWPOLYLINE
5
115
100
AcDbEntity
8
INTERIOR_PROFILES
100
AcDbPolyline
90
4
70
1
43
0.0
10
178.39999999999998
20
152.99999999999903
42
-0.99999999999999989
10
183.59999999999991
20
152.99999999999903
10
183.59999999999991
20
148.99999999999903
42
-0.99999999999999989
10
178.39999999999998
20
148.99999999999903
0
LWPOLYLINE
5
116
100
AcDbEntity
8
INTERIOR_PROFILES
100
AcDbPolyline
90
4
70
1
43
0.0
10
96.399999999999949
20
152.99999999999903
42
-0.99999999999999989
10
101.59999999999995
20
152.99999999999903
10
101.59999999999995
20
148.99999999999903
42
-0.99999999999999989
10
96.399999999999949
20
148.99999999999903
0
LWPOLYLINE
5
117
100
AcDbEntity
8
INTERIOR_PROFILES
100
AcDbPolyline
90
8
70
1
43
0.0
10
97
20
119.99999999999997
10
96.999999999999957
20
48.000000000000007
42
0.4142135623730947
10
103.99999999999997
20
41.000000000000014
10
176
20
40.999999999999986
42
0.41421356237309392
10
182.99999999999997
20
47.999999999999986
10
182.99999999999997
20
119.99999999999999
42
0.41421356237309431
10
175.99999999999997
20
126.99999999999996
10
103.99999999999999
20
126.99999999999996
42
0.41421356237309503
0
LWPOLYLINE
5
118
100
AcDbEntity
8
INTERIOR_PROFILES
100
AcDbPolyline
90
4
70
1
43
0.0
10
71.000000000001009
20
49.400000000000034
10
75.000000000001009
20
49.400000000000034
42
0.99999999999999989
10
75.000000000001009
20
54.600000000000023
10
71.000000000001009
20
54.600000000000023
42
0.99999999999999989
0
CIRCLE
5
119
100
AcDbEntity
8
INTERIOR_PROFILES
100
AcDbCircle
10
-39.999999999999893
20
48.999999999999879
30
0
40
3.8940000000000019
210
0
220
0
230
-1
0
CIRCLE
5
120
100
AcDbEntity
8
INTERIOR_PROFILES
100
AcDbCircle
10
-39.999999999999375
20
75.999999999999886
30
0
40
3.8940000000000019
210
0
220
0
230
-1
0
CIRCLE
5
121
100
AcDbEntity
8
INTERIOR_PROFILES
100
AcDbCircle
10
-37.919999999999952
20
111.73499999999976
30
0
40
10.999999999999996
210
0
220
0
230
-1
0
LWPOLYLINE
5
122
100
AcDbEntity
8
INTERIOR_PROFILES
100
AcDbPolyline
90
4
70
1
43
0.0
10
204.99999999999986
20
33.399999999999977
10
208.99999999999989
20
33.399999999999977
42
0.99999999999999989
10
208.99999999999989
20
38.59999999999998
10
204.99999999999986
20
38.59999999999998
42
0.99999999999999989
0
LWPOLYLINE
5
123
100
AcDbEntity
8
INTERIOR_PROFILES
100
AcDbPolyline
90
4
70
1
43
0.0
10
208.99999999999991
20
118.60000000000001
10
204.99999999999989
20
118.60000000000001
42
0.99999999999999989
10
204.99999999999989
20
113.40000000000002
10
208.99999999999983
20
113.40000000000002
42
0.99999999999999989
0
LWPOLYLINE
5
124
100
AcDbEntity
8
INTERIOR_PROFILES
100
AcDbPolyline
90
4
70
1
43
0.0
10
204.99999999999986
20
49.400000000000048
42
-0.99999999999999989
10
204.99999999999986
20
54.600000000000044
10
208.99999999999989
20
54.600000000000044
42
-0.99999999999999989
10
208.99999999999989
20
49.400000000000048
0
ENDSEC
0
SECTION
2
OBJECTS
0
DICTIONARY
5
C
100
AcDbDictionary
3
ACAD_GROUP
350
D
3
ACAD_MLINESTYLE
350
17
0
DICTIONARY
5
D
100
AcDbDictionary
0
DICTIONARY
5
1A
330
C
100
AcDbDictionary
0
DICTIONARY
5
17
100
AcDbDictionary
0
ENDSEC
0
EOF
