0
SECTION
2
HEADER
9
$INSUNITS
70
4
9
$ACADVER
1
AC1014
9
$HANDSEED
5
FFFF
0
ENDSEC
0
SECTION
2
TABLES
0
TABLE
2
VPORT
5
8
100
AcDbSymbolTable
0
ENDTAB
0
TABLE
2
LTYPE
5
5
100
AcDbSymbolTable
0
LTYPE
5
14
100
AcDbSymbolTableRecord
100
AcDbLinetypeTableRecord
2
BYBLOCK
70
0
0
LTYPE
5
15
100
AcDbSymbolTableRecord
100
AcDbLinetypeTableRecord
2
BYLAYER
70
0
0
ENDTAB
0
TABLE
2
LAYER
5
2
100
AcDbSymbolTable
70
2
0
LAYER
5
50
100
AcDbSymbolTableRecord
100
AcDbLayerTableRecord
2
0
70
0
6
CONTINUOUS
0
ENDTAB
0
TABLE
2
STYLE
5
3
100
AcDbSymbolTable
70
1
0
STYLE
5
11
100
AcDbSymbolTableRecord
100
AcDbTextStyleTableRecord
2
STANDARD
70
0
0
ENDTAB
0
TABLE
2
VIEW
5
6
100
AcDbSymbolTable
70
0
0
ENDTAB
0
TABLE
2
UCS
5
7
100
AcDbSymbolTable
70
0
0
ENDTAB
0
TABLE
2
APPID
5
9
100
AcDbSymbolTable
70
2
0
APPID
5
12
100
AcDbSymbolTableRecord
100
AcDbRegAppTableRecord
2
ACAD
70
0
0
ENDTAB
0
TABLE
2
DIMSTYLE
5
A
100
AcDbSymbolTable
70
1
0
ENDTAB
0
TABLE
2
BLOCK_RECORD
5
1
100
AcDbSymbolTable
70
1
0
BLOCK_RECORD
5
1F
100
AcDbSymbolTableRecord
100
AcDbBlockTableRecord
2
*MODEL_SPACE
0
BLOCK_RECORD
5
1B
100
AcDbSymbolTableRecord
100
AcDbBlockTableRecord
2
*PAPER_SPACE
0
ENDTAB
0
ENDSEC
0
SECTION
2
BLOCKS
0
BLOCK
5
20
100
AcDbEntity
100
AcDbBlockBegin
2
*MODEL_SPACE
0
ENDBLK
5
21
100
AcDbEntity
100
AcDbBlockEnd
0
BLOCK
5
1C
100
AcDbEntity
100
AcDbBlockBegin
2
*PAPER_SPACE
0
ENDBLK
5
1D
100
AcDbEntity
100
AcDbBlockEnd
0
ENDSEC
0
SECTION
2
ENTITIES
0
LWPOLYLINE
5
100
100
AcDbEntity
8
OUTER_PROFILES
100
AcDbPolyline
90
24
70
1
43
0.0
10
-12.864457538253797
20
8.9999999999999645
42
0.4142135623730952
10
-14.864457538253799
20
6.9999999999999654
10
-14.864457538253806
20
-5.7878124633654039e-16
10
-35.864457538254214
20
2.269634701217603e-15
10
-40.864457538254214
20
-3.8192446994609903e-15
10
-47.650297670008129
20
-2.8803609250128679e-17
10
-53.650297670008193
20
-5.5511151231257827e-15
42
-0.41421356237309398
10
-59.650297670008179
20
5.9999999999999787
10
-59.650297670008179
20
102.00000000000001
42
-0.41421356237309503
10
-53.650297670008186
20
108
10
-47.650297670008129
20
108
10
-40.864457538254214
20
108
10
-35.864457538254214
20
108.00000000000003
10
113.13554246174581
20
108
10
119.92138259349979
20
108
10
125.9213825934998
20
108
42
-0.4142135623730942
10
131.9213825934998
20
102.00000000000003
10
131.9213825934998
20
5.9999999999999876
42
-0.41421356237309503
10
125.92138259349981
20
-8.1647973019844815e-15
10
119.92138259349977
20
-4.813311546397261e-15
10
113.13554246174583
20
-1.022870456186386e-15
10
1.9721522630525295e-30
20
0
10
1.1657341758564144e-14
20
6.9999999999999654
42
0.41421356237309537
10
-1.9999999999999885
20
8.9999999999999787
0
LWPOLYLINE
5
101
100
AcDbEntity
8
INTERIOR_PROFILES
100
AcDbPolyline
90
4
70
1
43
0.0
10
21.486508540804078
20
88
10
21.486508540804074
20
83.142857142857153
10
-35.213491459195929
20
83.142857142857153
10
-35.213491459195922
20
88
0
LWPOLYLINE
5
102
100
AcDbEntity
8
INTERIOR_PROFILES
100
AcDbPolyline
90
4
70
1
43
0.0
10
-35.213491459195922
20
49.142857142857146
10
21.486508540804078
20
49.142857142857146
10
21.486508540804081
20
44.285714285714292
10
-35.213491459195922
20
44.285714285714292
0
LWPOLYLINE
5
103
100
AcDbEntity
8
INTERIOR_PROFILES
100
AcDbPolyline
90
4
70
1
43
0.0
10
21.486508540804078
20
54
10
-35.213491459195922
20
54
10
-35.213491459195929
20
58.857142857142861
10
21.486508540804074
20
58.857142857142861
0
LWPOLYLINE
5
104
100
AcDbEntity
8
INTERIOR_PROFILES
100
AcDbPolyline
90
4
70
1
43
0.0
10
-35.213491459195922
20
78.285714285714278
10
21.486508540804078
20
78.285714285714292
10
21.486508540804078
20
73.428571428571431
10
-35.213491459195922
20
73.428571428571431
0
LWPOLYLINE
5
105
100
AcDbEntity
8
INTERIOR_PROFILES
100
AcDbPolyline
90
4
70
1
43
0.0
10
21.486508540804078
20
68.571428571428584
10
21.486508540804074
20
63.714285714285722
10
-35.213491459195929
20
63.714285714285722
10
-35.213491459195922
20
68.571428571428569
0
LWPOLYLINE
5
106
100
AcDbEntity
8
INTERIOR_PROFILES
100
AcDbPolyline
90
4
70
1
43
0.0
10
21.486508540804074
20
34.571428571428569
10
-35.213491459195929
20
34.571428571428569
10
-35.213491459195922
20
39.428571428571431
10
21.486508540804078
20
39.428571428571423
0
CIRCLE
5
107
100
AcDbEntity
8
INTERIOR_PROFILES
100
AcDbCircle
10
92.116304575279116
20
68.999999999999744
30
0
40
1.6499999999999915
210
0
220
0
230
1
0
LWPOLYLINE
5
108
100
AcDbEntity
8
INTERIOR_PROFILES
100
AcDbPolyline
90
4
70
1
43
0.0
10
-35.213491459195922
20
24.857142857142858
10
-35.213491459195922
20
29.714285714285715
10
21.486508540804078
20
29.714285714285712
10
21.486508540804078
20
24.857142857142854
0
CIRCLE
5
109
100
AcDbEntity
8
INTERIOR_PROFILES
100
AcDbCircle
10
66.135542461745814
20
83.999999999999986
30
0
40
1.6499999999999915
210
0
220
-0
230
1
0
CIRCLE
5
110
100
AcDbEntity
8
INTERIOR_PROFILES
100
AcDbCircle
10
-66.135542461745814
20
53.999999999999986
30
0
40
25
210
0
220
0
230
-1
0
CIRCLE
5
111
100
AcDbEntity
8
INTERIOR_PROFILES
100
AcDbCircle
10
40.154780348212725
20
69.000000000000114
30
0
40
1.6499999999999915
210
0
220
0
230
1
0
CIRCLE
5
112
100
AcDbEntity
8
INTERIOR_PROFILES
100
AcDbCircle
10
125.9213825934998
20
102.00000000000001
30
0
40
2.0999999999999908
210
0
220
0
230
1
0
CIRCLE
5
113
100
AcDbEntity
8
INTERIOR_PROFILES
100
AcDbCircle
10
66.135542461745814
20
23.999999999999989
30
0
40
1.6499999999999915
210
0
220
-0
230
1
0
CIRCLE
5
114
100
AcDbEntity
8
INTERIOR_PROFILES
100
AcDbCircle
10
125.92138259349917
20
21.999999999999964
30
0
40
2.0999999999999908
210
0
220
0
230
1
0
CIRCLE
5
115
100
AcDbEntity
8
INTERIOR_PROFILES
100
AcDbCircle
10
125.92138259349916
20
85.999999999999957
30
0
40
2.0999999999999908
210
0
220
0
230
1
0
CIRCLE
5
116
100
AcDbEntity
8
INTERIOR_PROFILES
100
AcDbCircle
10
92.116304575278775
20
38.999999999999687
30
0
40
1.6499999999999915
210
0
220
-0
230
1
0
CIRCLE
5
117
100
AcDbEntity
8
INTERIOR_PROFILES
100
AcDbCircle
10
125.92138259349981
20
5.9999999999999876
30
0
40
2.0999999999999908
210
0
220
0
230
1
0
CIRCLE
5
118
100
AcDbEntity
8
INTERIOR_PROFILES
100
AcDbCircle
10
40.154780348212604
20
39.000000000000043
30
0
40
1.6499999999999959
210
0
220
-0
230
1
0
CIRCLE
5
119
100
AcDbEntity
8
INTERIOR_PROFILES
100
AcDbCircle
10
-53.650297670006907
20
85.999999999999957
30
0
40
2.0999999999999908
210
0
220
0
230
1
0
CIRCLE
5
120
100
AcDbEntity
8
INTERIOR_PROFILES
100
AcDbCircle
10
-53.650297670006907
20
21.999999999999979
30
0
40
2.0999999999999908
210
0
220
0
230
1
0
CIRCLE
5
121
100
AcDbEntity
8
INTERIOR_PROFILES
100
AcDbCircle
10
-53.650297670007546
20
102.00000000000001
30
0
40
2.0999999999999908
210
0
220
0
230
1
0
CIRCLE
5
122
100
AcDbEntity
8
INTERIOR_PROFILES
100
AcDbCircle
10
-53.650297670007546
20
6
30
0
40
2.0999999999999908
210
0
220
0
230
1
0
LINE
5
123
100
AcDbEntity
8
BEND
100
AcDbLine
10
116.52846252762282
20
-8.603752636608159e-15
30
-1.1560226420072875e-14
11
116.52846252762281
21
108
31
2.1746464318681985e-14
0
LINE
5
124
100
AcDbEntity
8
BEND
100
AcDbLine
10
-44.257377604131207
20
108
30
3.2982972943783268e-15
11
-44.257377604131207
21
0
31
3.2982972943783268e-15
0
LINE
5
125
100
AcDbEntity
8
BEND_EXTENT
100
AcDbLine
10
113.13554246174581
20
108
30
1.0656300944060578e-46
11
113.13554246174583
21
0
31
1.0656300944060563e-46
0
LINE
5
126
100
AcDbEntity
8
BEND_EXTENT
100
AcDbLine
10
-40.864457538254214
20
-3.8192446994609903e-15
30
-3.84904644436264e-47
11
-40.864457538254214
21
108
31
-3.8490464443626239e-47
0
LINE
5
127
100
AcDbEntity
8
BEND_EXTENT
100
AcDbLine
10
119.92138259349977
20
-4.813311546397261e-15
30
-3.5527136788005009e-14
11
119.92138259349979
21
108
31
-3.5527136788005009e-14
0
LINE
5
128
100
AcDbEntity
8
BEND_EXTENT
100
AcDbLine
10
-47.650297670008129
20
108
30
2.0677903833643541e-14
11
-47.650297670008129
21
0
31
2.0400348077487251e-14
0
ENDSEC
0
SECTION
2
OBJECTS
0
DICTIONARY
5
C
100
AcDbDictionary
3
ACAD_GROUP
350
D
3
ACAD_MLINESTYLE
350
17
0
DICTIONARY
5
D
100
AcDbDictionary
0
DICTIONARY
5
1A
330
C
100
AcDbDictionary
0
DICTIONARY
5
17
100
AcDbDictionary
0
ENDSEC
0
EOF
